<svg xmlns="http://www.w3.org/2000/svg" width="55.157" height="55.157" viewBox="0 0 55.157 55.157">
  <g id="Grupo_11" data-name="Grupo 11" transform="translate(-238.228 -129.374)">
    <path id="Caminho_181" data-name="Caminho 181" d="M292.8,133.429c1.974-1.974-1.494-5.443-3.469-3.467-10.989,10.99-12.482,5.573-18.858,11.947l-30.158,30.159c-2.5,2.5-2.961,6.121-.236,8.844l.884.885.885.883c2.722,2.725,6.347,2.263,8.844-.236l30.159-30.159C287.223,145.913,281.806,144.419,292.8,133.429Z" transform="translate(0)" fill="#d1c5bd"/>
    <path id="Caminho_182" data-name="Caminho 182" d="M241.446,180.341c-2.459-2.458-1.409-5.253.235-6.9l30.159-30.159a12.03,12.03,0,0,1,6.115-3.588c2.788-.836,6.257-1.874,12.743-8.358.494-.495,1.191.174,1.269.253s.746.776.253,1.27c-6.484,6.483-7.521,9.954-8.358,12.743a12.03,12.03,0,0,1-3.59,6.114l-30.158,30.159c-1.644,1.645-4.441,2.694-6.9.235Z" transform="translate(-0.396 -0.401)" fill="#a3978e"/>
    <path id="Caminho_183" data-name="Caminho 183" d="M292.592,132.858c.494-.494-.176-1.191-.253-1.27s-.775-.747-1.269-.253c-6.486,6.484-9.954,7.523-12.743,8.358a12.03,12.03,0,0,0-6.115,3.588l-30.159,30.159c-.143.143-.279.3-.409.457a13.492,13.492,0,0,0,8.385,8.388c.159-.133.313-.27.457-.412l30.158-30.159a12.031,12.031,0,0,0,3.59-6.114C285.071,142.812,286.108,139.341,292.592,132.858Z" transform="translate(-0.768 -0.401)" fill="#f7f4f2"/>
    <path id="Caminho_184" data-name="Caminho 184" d="M303.857,131.336a48.506,48.506,0,0,1-5.347,4.7l2.168,2.17a48.069,48.069,0,0,1,4.7-5.348c.494-.494-.176-1.191-.253-1.27S304.351,130.841,303.857,131.336Z" transform="translate(-13.555 -0.401)" fill="#c93218"/>
    <g id="Grupo_10" data-name="Grupo 10" transform="translate(242.529 140.342)">
      <rect id="Retângulo_9" data-name="Retângulo 9" width="0.917" height="8.713" transform="translate(33.078 0.649) rotate(-45)" fill="#635952"/>
      <rect id="Retângulo_10" data-name="Retângulo 10" width="0.917" height="6.267" transform="translate(32.62 2.836) rotate(-45)" fill="#635952"/>
      <rect id="Retângulo_11" data-name="Retângulo 11" width="0.917" height="6.269" transform="translate(31.295 4.159) rotate(-45.005)" fill="#635952"/>
      <rect id="Retângulo_12" data-name="Retângulo 12" width="0.917" height="6.27" transform="translate(29.972 5.481) rotate(-44.999)" fill="#635952"/>
      <path id="Caminho_185" data-name="Caminho 185" d="M285.169,156.549l-4.433-4.433.649-.648,4.431,4.431Z" transform="translate(-252.087 -145.31)" fill="#635952"/>
      <rect id="Retângulo_13" data-name="Retângulo 13" width="0.919" height="8.714" transform="translate(26.461 7.264) rotate(-44.996)" fill="#635952"/>
      <rect id="Retângulo_14" data-name="Retângulo 14" width="0.919" height="6.269" transform="matrix(0.707, -0.707, 0.707, 0.707, 26.003, 9.452)" fill="#635952"/>
      <rect id="Retângulo_15" data-name="Retângulo 15" width="0.917" height="6.267" transform="matrix(0.707, -0.707, 0.707, 0.707, 24.681, 10.775)" fill="#635952"/>
      <rect id="Retângulo_16" data-name="Retângulo 16" width="0.917" height="6.268" transform="translate(23.357 12.097) rotate(-44.986)" fill="#635952"/>
      <rect id="Retângulo_17" data-name="Retângulo 17" width="0.917" height="6.268" transform="matrix(0.707, -0.707, 0.707, 0.707, 22.034, 13.421)" fill="#635952"/>
      <rect id="Retângulo_18" data-name="Retângulo 18" width="0.919" height="8.714" transform="translate(19.845 13.88) rotate(-45)" fill="#635952"/>
      <rect id="Retângulo_19" data-name="Retângulo 19" width="0.919" height="6.27" transform="translate(19.387 16.068) rotate(-45.005)" fill="#635952"/>
      <rect id="Retângulo_20" data-name="Retângulo 20" width="0.917" height="6.268" transform="matrix(0.707, -0.707, 0.707, 0.707, 18.064, 17.391)" fill="#635952"/>
      <rect id="Retângulo_21" data-name="Retângulo 21" width="0.918" height="6.269" transform="translate(16.74 18.714) rotate(-45)" fill="#635952"/>
      <path id="Caminho_186" data-name="Caminho 186" d="M268.1,173.617l-4.433-4.433.65-.648,4.433,4.433Z" transform="translate(-248.249 -149.148)" fill="#635952"/>
      <rect id="Retângulo_22" data-name="Retângulo 22" width="0.918" height="8.713" transform="translate(13.23 20.496) rotate(-45)" fill="#635952"/>
      <rect id="Retângulo_23" data-name="Retângulo 23" width="0.917" height="6.269" transform="translate(12.772 22.683) rotate(-44.995)" fill="#635952"/>
      <rect id="Retângulo_24" data-name="Retângulo 24" width="0.918" height="6.267" transform="translate(11.449 24.006) rotate(-44.995)" fill="#635952"/>
      <rect id="Retângulo_25" data-name="Retângulo 25" width="0.918" height="6.269" transform="translate(10.124 25.329) rotate(-44.995)" fill="#635952"/>
      <rect id="Retângulo_26" data-name="Retângulo 26" width="0.917" height="6.268" transform="translate(8.802 26.653) rotate(-45.01)" fill="#635952"/>
      <rect id="Retângulo_27" data-name="Retângulo 27" width="0.917" height="8.714" transform="translate(6.614 27.111) rotate(-45.004)" fill="#635952"/>
      <rect id="Retângulo_28" data-name="Retângulo 28" width="0.916" height="6.269" transform="translate(6.156 29.299) rotate(-45.015)" fill="#635952"/>
      <rect id="Retângulo_29" data-name="Retângulo 29" width="0.918" height="6.269" transform="translate(4.833 30.622) rotate(-45.01)" fill="#635952"/>
      <rect id="Retângulo_30" data-name="Retângulo 30" width="0.917" height="6.269" transform="translate(3.51 31.945) rotate(-45)" fill="#635952"/>
      <path id="Caminho_187" data-name="Caminho 187" d="M251.031,190.687l-4.433-4.432.648-.65,4.434,4.434Z" transform="translate(-244.411 -152.986)" fill="#635952"/>
      <rect id="Retângulo_31" data-name="Retângulo 31" width="0.918" height="8.713" transform="translate(0 33.726) rotate(-44.99)" fill="#635952"/>
    </g>
    <rect id="Retângulo_32" data-name="Retângulo 32" width="58.857" height="1.377" transform="matrix(0.706, -0.708, 0.708, 0.706, 244.605, 177.228)" fill="#c93218"/>
    <path id="Caminho_188" data-name="Caminho 188" d="M242.639,182.926c2.722,2.725,6.347,2.263,8.844-.236l30.159-30.159c6.373-6.373.957-7.867,11.948-18.857a2.214,2.214,0,0,0-.254-3.215l-51.582,51.584Z" transform="translate(-0.793 -0.244)" fill="#d1c5bd" style="mix-blend-mode: multiply;isolation: isolate"/>
  </g>
</svg>
