<svg xmlns="http://www.w3.org/2000/svg" xmlns:xlink="http://www.w3.org/1999/xlink" width="89.942" height="144.04" viewBox="0 0 89.942 144.04">
  <defs>
    <linearGradient id="linear-gradient" x1="0.365" y1="0.207" x2="0.684" y2="0.921" gradientUnits="objectBoundingBox">
      <stop offset="0" stop-color="#6c7280"/>
      <stop offset="0.98" stop-color="#7f8687"/>
    </linearGradient>
    <linearGradient id="linear-gradient-2" x1="0.291" y1="0.258" x2="0.843" y2="0.896" xlink:href="#linear-gradient"/>
    <linearGradient id="linear-gradient-3" x1="1.273" y1="0.496" x2="1.395" y2="1.212" xlink:href="#linear-gradient"/>
    <linearGradient id="linear-gradient-4" x1="1.274" y1="0.432" x2="3.186" y2="1.068" xlink:href="#linear-gradient"/>
    <linearGradient id="linear-gradient-5" x1="0.417" y1="0.526" x2="0.2" y2="0.242" gradientUnits="objectBoundingBox">
      <stop offset="0" stop-color="#d1ffff"/>
      <stop offset="1" stop-color="#baf6f8"/>
    </linearGradient>
    <linearGradient id="linear-gradient-6" x1="0" y1="0.5" x2="1" y2="0.5" xlink:href="#linear-gradient-5"/>
    <linearGradient id="linear-gradient-7" x1="-0.001" y1="0.5" x2="1" y2="0.5" xlink:href="#linear-gradient-5"/>
    <linearGradient id="linear-gradient-8" x1="-0.004" y1="0.5" x2="0.996" y2="0.5" xlink:href="#linear-gradient-5"/>
    <linearGradient id="linear-gradient-9" x1="0" y1="0.5" x2="1" y2="0.5" xlink:href="#linear-gradient-5"/>
    <linearGradient id="linear-gradient-10" x1="0.809" y1="0.439" x2="0.032" y2="0.618" gradientUnits="objectBoundingBox">
      <stop offset="0" stop-color="#f4bb89"/>
      <stop offset="1" stop-color="#f49168"/>
    </linearGradient>
    <linearGradient id="linear-gradient-11" x1="-1.28" y1="0.5" x2="4.206" y2="0.5" xlink:href="#linear-gradient-5"/>
    <linearGradient id="linear-gradient-12" x1="1.261" y1="-0.002" x2="0.165" y2="1.019" gradientUnits="objectBoundingBox">
      <stop offset="0" stop-color="#f4aa8a"/>
      <stop offset="0.34" stop-color="#f48d70"/>
      <stop offset="0.99" stop-color="#f45941"/>
    </linearGradient>
    <linearGradient id="linear-gradient-13" x1="0.954" y1="0.233" x2="0.377" y2="0.738" gradientUnits="objectBoundingBox">
      <stop offset="0" stop-color="#a04a24"/>
      <stop offset="1" stop-color="#b03f22"/>
    </linearGradient>
    <linearGradient id="linear-gradient-15" x1="0.632" y1="0.078" x2="0.234" y2="0.909" gradientUnits="objectBoundingBox">
      <stop offset="0" stop-color="#baf6f8"/>
      <stop offset="0.98" stop-color="#aae8ef"/>
    </linearGradient>
    <linearGradient id="linear-gradient-16" x1="0.001" y1="0.499" x2="1" y2="0.499" xlink:href="#linear-gradient-5"/>
    <linearGradient id="linear-gradient-17" x1="0.659" y1="0.3" x2="0.509" y2="0.807" xlink:href="#linear-gradient-5"/>
    <linearGradient id="linear-gradient-18" x1="0.446" y1="0.433" x2="0.269" y2="0.952" xlink:href="#linear-gradient-5"/>
    <linearGradient id="linear-gradient-19" x1="-13.899" y1="0.5" x2="7.115" y2="0.5" xlink:href="#linear-gradient-5"/>
    <linearGradient id="linear-gradient-20" x1="0.864" y1="0.981" x2="0.567" y2="0.321" xlink:href="#linear-gradient-10"/>
    <linearGradient id="linear-gradient-21" x1="0.264" y1="-3.274" x2="0.494" y2="0.051" gradientUnits="objectBoundingBox">
      <stop offset="0.01" stop-color="#153e42"/>
      <stop offset="0.99" stop-color="#204c50"/>
    </linearGradient>
    <linearGradient id="linear-gradient-22" x1="-0.026" y1="1.775" x2="0.707" y2="0.163" xlink:href="#linear-gradient-10"/>
    <linearGradient id="linear-gradient-23" x1="0.775" y1="0.812" x2="0.163" y2="0.084" gradientUnits="objectBoundingBox">
      <stop offset="0.01" stop-color="#00a9ad"/>
      <stop offset="1" stop-color="#00cbd2"/>
    </linearGradient>
    <linearGradient id="linear-gradient-24" x1="0.333" y1="1.379" x2="0.593" y2="-0.105" xlink:href="#linear-gradient-10"/>
    <linearGradient id="linear-gradient-25" x1="0.305" y1="1.579" x2="0.578" y2="-0.073" xlink:href="#linear-gradient-10"/>
    <linearGradient id="linear-gradient-26" x1="0.034" y1="-0.121" x2="0.433" y2="0.471" xlink:href="#linear-gradient-10"/>
    <linearGradient id="linear-gradient-27" x1="0.362" y1="-0.041" x2="0.689" y2="0.684" gradientUnits="objectBoundingBox">
      <stop offset="0.01" stop-color="#c80103"/>
      <stop offset="1" stop-color="#b60012"/>
    </linearGradient>
    <linearGradient id="linear-gradient-28" x1="0.43" y1="0.016" x2="0.932" y2="1.035" xlink:href="#linear-gradient-10"/>
    <linearGradient id="linear-gradient-29" x1="0.296" y1="0.909" x2="0.711" y2="0.188" xlink:href="#linear-gradient-10"/>
    <linearGradient id="linear-gradient-30" x1="0.19" y1="0.024" x2="0.544" y2="0.908" xlink:href="#linear-gradient-12"/>
    <linearGradient id="linear-gradient-31" x1="0.26" y1="0.116" x2="0.897" y2="1.003" gradientUnits="objectBoundingBox">
      <stop offset="0" stop-color="#d63800"/>
      <stop offset="1" stop-color="#c62700"/>
    </linearGradient>
    <linearGradient id="linear-gradient-32" x1="0.335" y1="1.002" x2="0.634" y2="0.176" xlink:href="#linear-gradient-10"/>
    <linearGradient id="linear-gradient-33" x1="0.516" y1="0.557" x2="0.478" y2="-0.037" gradientUnits="objectBoundingBox">
      <stop offset="0" stop-color="#7f8687"/>
      <stop offset="0.36" stop-color="#9ea3a3"/>
      <stop offset="0.99" stop-color="#d2d2d2"/>
    </linearGradient>
    <linearGradient id="linear-gradient-34" x1="0.64" y1="0.668" x2="0.954" y2="1.27" xlink:href="#linear-gradient-21"/>
    <linearGradient id="linear-gradient-35" x1="1.15" y1="0.409" x2="-0.063" y2="0.552" xlink:href="#linear-gradient-10"/>
  </defs>
  <g id="Layer_1" data-name="Layer 1" transform="translate(0 0)">
    <path id="Caminho_1" data-name="Caminho 1" d="M0,388.577c0,1.464,23.706,6.624,45.02,6.324,40.108-.6,44.922-3.943,44.922-6.111,0-1.422-31.428-3.66-43.667-3.65C38.637,385.147,0,385.621,0,388.577Z" transform="translate(0 -250.874)" fill="#ddcec4" opacity="0.7"/>
    <path id="Caminho_2" data-name="Caminho 2" d="M180.355,304.878a.746.746,0,0,1-.732.757h0a.746.746,0,0,1-.743-.729l-1.011-52.32a.743.743,0,0,1,1.485-.028l.084,4.372Z" transform="translate(-115.862 -164.038)" fill="url(#linear-gradient)"/>
    <path id="Caminho_3" data-name="Caminho 3" d="M178.414,258.213l.7,29.671V305.44a.729.729,0,0,1-.254-.544l-.987-52.309a.743.743,0,0,1,1.485-.028l.084,4.372C179.017,257.435,178.414,258.213,178.414,258.213Z" transform="translate(-115.862 -164.038)" fill="#94959c" opacity="0.4"/>
    <path id="Caminho_4" data-name="Caminho 4" d="M202.223,291.372a.743.743,0,0,1-.492.757.59.59,0,0,1-.2.042h-.056a.746.746,0,0,1-.743-.7l-3.908-51.713a.746.746,0,0,1,1.485-.115l.286,3.779Z" transform="translate(-128.212 -155.68)" fill="url(#linear-gradient-2)"/>
    <path id="Caminho_5" data-name="Caminho 5" d="M201.731,292.128a.588.588,0,0,1-.2.042h-.056a.746.746,0,0,1-.743-.7l-3.908-51.713a.746.746,0,0,1,1.485-.115l.286,3.779c-.429.676-.844,1.318-.844,1.318Z" transform="translate(-128.212 -155.68)" fill="#94959c" opacity="0.4"/>
    <path id="Caminho_6" data-name="Caminho 6" d="M74.409,301.869a.743.743,0,0,1-.809.669h0a.75.75,0,0,1-.655-.809l5-52.1a.744.744,0,0,1,1.482.143l-.418,4.354Z" transform="translate(-47.513 -162.168)" fill="url(#linear-gradient-3)"/>
    <path id="Caminho_7" data-name="Caminho 7" d="M77.816,255.3,75.1,284.853,73.1,302.284a.732.732,0,0,1-.192-.568l5.013-52.083a.744.744,0,1,1,1.482.143l-.418,4.354C78.513,254.6,77.816,255.3,77.816,255.3Z" transform="translate(-47.486 -162.168)" fill="#94959c" opacity="0.4"/>
    <path id="Caminho_8" data-name="Caminho 8" d="M108.955,290.978a.746.746,0,0,1-.743.746h-.056a.743.743,0,0,1-.7-.739l-.059-51.874a.746.746,0,0,1,1.489,0V242.9Z" transform="translate(-69.959 -155.3)" fill="url(#linear-gradient-4)"/>
    <path id="Caminho_9" data-name="Caminho 9" d="M108.411,291.7a.74.74,0,0,1-.2.028h-.056a.743.743,0,0,1-.7-.739l-.059-51.874a.746.746,0,0,1,1.489,0V242.9c-.478.641-.938,1.252-.938,1.252Z" transform="translate(-69.959 -155.3)" fill="#94959c" opacity="0.4"/>
    <path id="Caminho_10" data-name="Caminho 10" d="M119.447,245.315v4.375l-8.339-1.119-20.753-2.792-3.315-.446V241.62l.237.028,26.613,3.036Z" transform="translate(-56.697 -157.387)" fill="#6c7280"/>
    <path id="Caminho_11" data-name="Caminho 11" d="M114.262,244.736l-2.782,3.887-20.753-2.792-3.117-3.918.038-.213Z" transform="translate(-57.068 -157.439)" fill="#6c7280" opacity="0.3"/>
    <path id="Caminho_12" data-name="Caminho 12" d="M187.568,240.889l-1.712,1.318-5.857,4.5v-4.375l4.047-2.939,3.242-2.353Z" transform="translate(-117.25 -154.404)" fill="#94959c"/>
    <path id="Caminho_13" data-name="Caminho 13" d="M195.131,240.889l-1.712,1.318c-.544-.844-1.314-2.036-1.809-2.813l3.242-2.353Z" transform="translate(-124.812 -154.404)" fill="#94959c" opacity="0.3"/>
    <path id="Caminho_14" data-name="Caminho 14" d="M126.737,230l-7.29,5.292-5.557-.631h0L87.04,231.6l8.109-5.365,19.916,2.374Z" transform="translate(-56.697 -147.362)" fill="#d6d6d6"/>
    <path id="Caminho_15" data-name="Caminho 15" d="M115.065,228.6l-1.175,6.055h0L87.04,231.6l8.109-5.365Z" transform="translate(-56.697 -147.362)" fill="#d6d6d6"/>
    <path id="Caminho_16" data-name="Caminho 16" d="M69.776,281.32l-.5.091-.767.143s-13.836-16.061-17.183-23.479-1.394-13.136-1.394-13.136c-4.316-7.9-6.1-20.418-6.1-20.418S42.344,232.538,41.6,236.3c-.293,1.335-.641,3.727-.99,6.645h0a.25.25,0,0,1,0,.045c-.115.91-.23,1.876-.349,2.873-.544,4.748-1.07,10.281-1.346,14.858-.523,8.646,0,21.37,0,21.37h-.9s-7.29-17.9-7.244-25.588a37.145,37.145,0,0,1,2.559-13.408c-2.827-9.517-2.381-20.826-2.559-22.447a29.33,29.33,0,0,0,10.727,1.7,31.027,31.027,0,0,0,7.422-1.509A49.705,49.705,0,0,0,54.5,218.66c0,.328,0,.739.031,1.224.188,4.093,1.245,13.45,2.493,21.482.1.655.206,1.3.31,1.938.547,3.326,1.123,6.313,1.67,8.44C61.071,259.842,69.776,281.32,69.776,281.32Z" transform="translate(-20.043 -142.431)" fill="url(#linear-gradient-5)"/>
    <path id="Caminho_17" data-name="Caminho 17" d="M51.55,398.374a5.383,5.383,0,0,1,3.866-1.157c2.081.338,3.263,3.2,3.263,3.2A38.749,38.749,0,0,1,51.55,398.374Z" transform="translate(-33.579 -258.709)" fill="#225668"/>
    <path id="Caminho_18" data-name="Caminho 18" d="M139,396.395s.223-1.5,3.05-1.429a6.841,6.841,0,0,1,4.685,2.391A42.054,42.054,0,0,1,139,396.395Z" transform="translate(-90.543 -257.273)" fill="#225668"/>
    <path id="Caminho_19" data-name="Caminho 19" d="M34.963,265.765c1.987,9.036,3.183,14.175,3.7,16.333h-.645s-7.29-17.9-7.244-25.588A37.145,37.145,0,0,1,33.328,243.1c-2.827-9.528-2.381-20.837-2.559-22.458a29.33,29.33,0,0,0,10.727,1.7,31.027,31.027,0,0,0,7.422-1.509A49.705,49.705,0,0,0,54.5,218.66c0,.328,0,.739.031,1.224-6.6,2.925-11.93,5.024-20.307,4.051,0,0-.7,15.831,1.095,20.732C35.316,244.667,32.213,253.242,34.963,265.765Z" transform="translate(-20.043 -142.431)" fill="url(#linear-gradient-6)"/>
    <path id="Caminho_20" data-name="Caminho 20" d="M93.685,292.36l-.767.143s-13.836-16.061-17.183-23.479-1.394-13.136-1.394-13.136c-4.316-7.9-6.1-20.418-6.1-20.418s4.365,14.792,7.541,19.522c0,0-1.687,4.626,2.677,13.6C82.254,276.443,91.437,289.268,93.685,292.36Z" transform="translate(-44.451 -153.381)" fill="url(#linear-gradient-7)"/>
    <path id="Caminho_21" data-name="Caminho 21" d="M54.167,288.34c-.115.927-.23,1.9-.349,2.918a4.055,4.055,0,0,1-1.645.387.8.8,0,0,1-.593-.774,6.3,6.3,0,0,0,1.984-.816A3.627,3.627,0,0,0,54.167,288.34Z" transform="translate(-33.598 -187.82)" fill="url(#linear-gradient-8)"/>
    <path id="Caminho_22" data-name="Caminho 22" d="M103.009,285.728a5.378,5.378,0,0,1-.512.593c-.526.519-1.586,0-1.586,0a3.729,3.729,0,0,0,1.788-2.531C102.8,284.445,102.9,285.094,103.009,285.728Z" transform="translate(-65.731 -184.856)" fill="url(#linear-gradient-9)"/>
    <path id="Caminho_23" data-name="Caminho 23" d="M45.735,33.761c.509-1.171,1.046-2.489,1.36-3.242.15-.349.241-.6.251-.617a2.552,2.552,0,0,1-3.016.063s.485-.446,1.3-1.154,0-.781,0-.781-.446,1.192-2.9,2.092-3.162-.112-3.2-.485a.815.815,0,0,1,.261-.418c-1.464.819-3,.826-3.169.6-.223-.286.906-1.394.969-1.447a37.891,37.891,0,0,1-4.089,2.266A6.275,6.275,0,0,0,31.787,33a.7.7,0,0,1-.153.216c-.2-.474-.669-2.866-1.809-2.385-1,.418-1.178,1.844-.436,3.354.066.132.139.268.216.4a6.753,6.753,0,0,0,1.185,1.454s-1.046.969.3,3.273a21.178,21.178,0,0,0,1.862,2.639c.3.349.61.725.931,1.077a16.625,16.625,0,0,0,1.771,1.687A4.736,4.736,0,0,0,38.442,46a3.09,3.09,0,0,0,.314-.021,4.626,4.626,0,0,0,1.286-.349,11.616,11.616,0,0,0,2.12-1.394c.795-.621,1.5-1.22,1.635-1.325,1.394-.99,2.632-3.518,1.687-5.5a3.015,3.015,0,0,1-.178-.464,3.256,3.256,0,0,1-.129-.739,5.048,5.048,0,0,1,.45-2.231Z" transform="translate(-18.846 -18.258)" fill="url(#linear-gradient-10)"/>
    <path id="Caminho_24" data-name="Caminho 24" d="M48.013,88.7a33.763,33.763,0,0,0,.349-7.042c-.129-1.991-.394-3.016-.432-3.744l-.091-.122a9.806,9.806,0,0,0-.952-.718,1.6,1.6,0,0,0-.314.021A4.669,4.669,0,0,1,43.785,75.8a3.012,3.012,0,0,0-2.385.718,7.61,7.61,0,0,0,.872,2.412C43.5,81.06,46.971,87.956,48.013,88.7Z" transform="translate(-26.967 -49.357)" fill="url(#linear-gradient-11)"/>
    <path id="Caminho_25" data-name="Caminho 25" d="M61.537,28a13.163,13.163,0,0,0-1.447,1.182A5.18,5.18,0,0,0,61.537,28Z" transform="translate(-39.142 -18.238)" fill="#a04a24"/>
    <path id="Caminho_26" data-name="Caminho 26" d="M50.66,60.58s2.789,2.231,5.229,1.743c0,0-1.335,2.486-2.74,2.092C51.193,63.864,50.66,60.58,50.66,60.58Z" transform="translate(-32.999 -39.46)" fill="#fff"/>
    <path id="Caminho_27" data-name="Caminho 27" d="M38.419,46.339c-.7.941.983,2.283,1.59,1.346C40.462,46.983,39.071,45.453,38.419,46.339Z" transform="translate(-24.917 -30.009)" fill="#ff4949" opacity="0.5"/>
    <path id="Caminho_28" data-name="Caminho 28" d="M72.119,52.141c.37.537,1.879-.519,1.447-1.252C73.057,50.049,71.526,51.3,72.119,52.141Z" transform="translate(-46.89 -32.966)" fill="#ff4949" opacity="0.5"/>
    <path id="Caminho_29" data-name="Caminho 29" d="M61.9,46.464c.157.436.241.819-.024,1.028-.519.408-1.963-.875-2.008-2.318a1.207,1.207,0,0,1,0-.16c.1-1.394,1.907-3.092,2.44-3.953a13.751,13.751,0,0,0-.819,4.114A5.428,5.428,0,0,0,61.9,46.464Z" transform="translate(-38.994 -26.745)" fill="url(#linear-gradient-12)"/>
    <path id="Caminho_30" data-name="Caminho 30" d="M36.25,22.31a1.045,1.045,0,0,1-.084.132,5.228,5.228,0,0,1-.349.467c-.094.115-.192.23-.307.349l-.15.157-.112.1c-.059.052-.115.1-.174.146l-.119.094-.031.021-.08.059-.136.094-.129.084h0l-.178.1-.167.094-.125.063L34,24.328q-.31.15-.628.272l-.136.052a13.282,13.282,0,0,1-2.58.614l-.265.038-.234.031c.3-.258.579-.5.854-.7a2.974,2.974,0,0,0,.39-.321l.094-.091.045-.049c.031-.031.063-.066.1-.1a5.6,5.6,0,0,0,1.046-1.691c.031-.084.063-.167.091-.254a4.1,4.1,0,0,0,.16-.582.225.225,0,0,1,.021-.115,4.183,4.183,0,0,0,.073-.931v-.115a.736.736,0,0,0,0-.091.652.652,0,0,0-.028-.23.892.892,0,0,0-.017-.094,2.967,2.967,0,0,0-.094-.366l-.021-.063a.066.066,0,0,1,0-.024c-.028-.073-.052-.146-.084-.22v-.017l-.091-.115a4.127,4.127,0,0,1,.143-3.434c.021-.045.038-.091.059-.139l.038-.08c.753-1.743,1.583-3.793,1.611-3.859a2.486,2.486,0,0,1-1.68.53h-.223l-.1-.063a.586.586,0,0,1-.084-.021c-.091-.021-.178-.045-.258-.07L32.123,12a2.608,2.608,0,0,1-.349-.15l-.052-.028a1.534,1.534,0,0,1-.167-.1H31.53s.485-.446,1.3-1.154,0-.781,0-.781a2.015,2.015,0,0,1-.45.628,6.359,6.359,0,0,1-2.44,1.457l-.261.091-.248.077-.119.031c-.119.031-.23.059-.349.08a3.65,3.65,0,0,1-.952.049h-.084a1.185,1.185,0,0,1-.16-.021h-.181l-.073-.021-.066-.024a.262.262,0,0,1-.063-.024l-.07-.063-.059-.031a.861.861,0,0,1-.164-.1.261.261,0,0,1-.059-.049.39.39,0,0,1-.07-.059l-.056-.059a.275.275,0,0,1-.042-.052.7.7,0,0,1-.1-.181.272.272,0,0,1-.017-.049.348.348,0,0,1,0-.049.24.24,0,0,1,0-.045.815.815,0,0,1,.261-.418,5.48,5.48,0,0,0,1.189-.9h0c.091-.091.174-.185.258-.286l-.091.066a.579.579,0,0,0-.073.056l-.119.087c-.1.077-.223.164-.349.265h0a8.235,8.235,0,0,0-.8.7,5.526,5.526,0,0,1-2.629.729h-.042a1.548,1.548,0,0,1-.321-.035.3.3,0,0,1-.178-.087c-.136-.178.241-.666.565-1.025l.129-.139c.073-.08.139-.146.188-.2l.028-.028.052-.052-.209.132-.383.234-.314.192c-.22.132-.436.258-.645.377L23,11.189c-.38.213-.732.4-1.046.561l-.268.139c-.258.132-.471.241-.631.317l-.112.052-.136.066h-.035l-.056.024A6.275,6.275,0,0,0,19,14.707l-.126.286c-.073-.174-.185-.61-.349-1.074q-.063-.167-.136-.349c-.021-.052-.042-.1-.066-.153-.293-.624-.7-1.136-1.283-.892-1.028.432-1.189,1.924-.373,3.486l.08.15c.035.063.073.126.112.188a6.784,6.784,0,0,0,1.147,1.394s-1.046.969.3,3.273a21.178,21.178,0,0,0,1.862,2.639c.3.349.61.725.931,1.077h0a8.478,8.478,0,0,1-.858.1,10.249,10.249,0,0,1-1.349,0h-.136q-.523-.042-1.046-.125l-.157-.007c-.383-.063-.763-.146-1.14-.244l-.157-.056h-.021l-.38-.108-.394-.115-.349-.126c-.164-.056-.321-.115-.478-.178l-.268-.1-.059-.024-.241-.091-.052-.024-.139-.059h0c-.077-.035-.157-.07-.23-.108-.275-.129-.54-.261-.795-.4l-.209-.119c-.22-.122-.429-.251-.628-.383l-.2-.132c-.129-.087-.251-.174-.366-.265l-.174-.136-.153-.129-.119-.1-.059-.056-.108-.1c-.091-.087-.171-.174-.248-.261s-.084-.094-.122-.139l-.08-.094c-.028-.038-.059-.073-.087-.108-.094-.122-.181-.237-.261-.349l-.059-.119-.091-.139-.08-.139c-.038-.066-.073-.129-.1-.2s-.035-.066-.049-.1a2.789,2.789,0,0,1-.115-.258L9.48,19.57a.41.41,0,0,0-.035-.1c-.01-.035-.028-.084-.038-.125l-.021-.08a1.447,1.447,0,0,1-.038-.167,1.108,1.108,0,0,0-.035-.181c-.01-.059,0-.028,0-.042a.533.533,0,0,0-.017-.146c-.017-.049,0-.028,0-.038V18.5a.38.38,0,0,1,0-.063v-.157a4.65,4.65,0,0,1,.049-.854,1.2,1.2,0,0,1,.031-.153.872.872,0,0,1,.045-.206c.017-.07.028-.119.045-.178a1.046,1.046,0,0,1,.042-.15A.573.573,0,0,1,9.55,16.6c.014-.049.035-.112.056-.171l.063-.185c.021-.056.042-.115.066-.171s.042-.119.066-.178.059-.146.094-.223.059-.146.094-.22l.07-.153c.035-.084.077-.164.115-.251L10.3,14.8l.084-.164.087-.171.112-.171a84.207,84.207,0,0,1,5.177-8.611h0l.4-.589c.244-.349.488-.7.736-1.046C19.674.065,22.633-.106,24.415.027a14.321,14.321,0,0,1,2.9.485c.146.042.286.087.422.136a8.018,8.018,0,0,1,1.97.987l.206.146a10.846,10.846,0,0,1,1.046.892l.164.16c.4.394.795.826,1.217,1.311h0l.146.171c.192.223.383.453.586.7a7.882,7.882,0,0,1,.962,1.454h0l.091.181c.084.178.157.349.227.523h0c.052.139.1.282.146.422h0a8.918,8.918,0,0,1,.418,2.555h0v.812c0,.244-.024.485-.045.718a.729.729,0,0,1-.024.23,3.775,3.775,0,0,1-.049.45,1.465,1.465,0,0,1-.028.216c-.017.143-.038.286-.059.418s-.038.268-.056.394l-.021.122a1.788,1.788,0,0,1-.035.244.617.617,0,0,1-.024.174,5.748,5.748,0,0,0-.052.641h0a6.366,6.366,0,0,0,.115,1.171h0c.021.119.042.234.066.349h0a11.114,11.114,0,0,0,1.192,2.984C36.379,19.974,37.167,20.825,36.25,22.31Z" transform="translate(-6.05 0.002)" fill="url(#linear-gradient-13)"/>
    <path id="Caminho_31" data-name="Caminho 31" d="M20.112,50.72c.3.349.61.725.931,1.077h0a8.48,8.48,0,0,1-.858.1c-3.65.241-8.049-1.691-9.646-3.483-1.7-1.935-1.743-3.692-.2-6.735l.087-.171a5.911,5.911,0,0,0,2.092,3.953c1.677,1.516,3.946-.645,3.946-.645a4.727,4.727,0,0,1,.349-1.394,6.784,6.784,0,0,0,1.147,1.394s-1.046.969.3,3.273A21.178,21.178,0,0,0,20.112,50.72Z" transform="translate(-6.007 -27.038)" fill="#a04a24" opacity="0.4"/>
    <path id="Caminho_32" data-name="Caminho 32" d="M42.042,28.349a37.891,37.891,0,0,1-4.089,2.266,6.275,6.275,0,0,0-1.719,2.357l-.126.286c-.073-.174-.185-.61-.349-1.074A17.513,17.513,0,0,1,42.589,28l-.948.76C41.84,28.547,42.018,28.373,42.042,28.349Z" transform="translate(-23.294 -18.238)" fill="#a04a24" opacity="0.4"/>
    <path id="Caminho_33" data-name="Caminho 33" d="M60.584,27.84a6.359,6.359,0,0,1-2.44,1.457c-2.44.892-3.162-.112-3.2-.485a.815.815,0,0,1,.261-.418,5.526,5.526,0,0,1-2.629.729c1.109-.558,2.852-1.666,3.779-2.092,1.45-.669.3.185.3.185l-.091.066a.579.579,0,0,0-.073.056l-.119.087a3.511,3.511,0,0,0-.7.68c-.425.586-.268,1.07.98,1.123A8.226,8.226,0,0,0,60.584,27.84Z" transform="translate(-34.25 -17.44)" fill="#a04a24" opacity="0.4"/>
    <path id="Caminho_34" data-name="Caminho 34" d="M74.811,41.919c-.094.115-.192.23-.307.349-1.44,1.548-4.2,1.935-5.355,2.092.3-.258.579-.5.854-.7,1.394-.99,2.632-3.518,1.687-5.5a4.127,4.127,0,0,1,.143-3.434c.021-.045.038-.091.059-.139l.038-.08c.753-1.743,1.583-3.793,1.611-3.859a2.559,2.559,0,0,1-3.016.066,3,3,0,0,0,2.751-.652,4.183,4.183,0,0,0,.655-.9,21.8,21.8,0,0,1-.349,3.779,5.75,5.75,0,0,0-.052.641h0a6.057,6.057,0,0,0,0,5.867C73.978,40.441,74.5,41.246,74.811,41.919Z" transform="translate(-45.043 -18.994)" fill="#a04a24" opacity="0.4"/>
    <path id="Caminho_35" data-name="Caminho 35" d="M45.693,141.037a20.018,20.018,0,0,0-1.133,5.756c.1,1.478-1.76-7.2-1.76-7.2Z" transform="translate(-27.879 -90.926)" opacity="0.5" fill="url(#linear-gradient-9)"/>
    <g id="Grupo_1" data-name="Grupo 1" transform="translate(3.605 0.513)" opacity="0.5">
      <path id="Caminho_36" data-name="Caminho 36" d="M67.2,18.731a5.728,5.728,0,0,1-.774,1.447,9.381,9.381,0,0,1-2,2.053,10.671,10.671,0,0,1-4.253,1.781,1.356,1.356,0,0,1-.146-.122,10.193,10.193,0,0,0,4.3-1.771,7.683,7.683,0,0,0,2.789-3.57Z" transform="translate(-42.707 -12.596)" fill="#8a3a1e"/>
      <path id="Caminho_37" data-name="Caminho 37" d="M60.032,12.1a5.546,5.546,0,0,1-.505,2.2A6.624,6.624,0,0,1,57.6,16.636a12.714,12.714,0,0,1-1.889,1.2h0c-.1.052-.2.1-.307.153l-.07.035h0a34.7,34.7,0,0,1-3.3,1.36l-.174.066a1.548,1.548,0,0,1-.321-.035l1.394-.526a22.7,22.7,0,0,0,3.138-1.412,11.362,11.362,0,0,0,1.238-.8A6.624,6.624,0,0,0,59.321,14.4a5.665,5.665,0,0,0,.565-2.461Z" transform="translate(-37.177 -8.29)" fill="#8a3a1e"/>
      <path id="Caminho_38" data-name="Caminho 38" d="M28.639,46.157a11.361,11.361,0,0,0-.307,8.266l-.178-.056a11.5,11.5,0,0,1-.2-6.624,11.187,11.187,0,0,1,.6-1.743Z" transform="translate(-21.559 -30.476)" fill="#8a3a1e"/>
      <path id="Caminho_39" data-name="Caminho 39" d="M37.73,7.85c.059,2.646-2.555,4.612-4.7,5.7a53.17,53.17,0,0,0-5.09,2.625,13.826,13.826,0,0,0-2.984,2.44c-.021-.052-.042-.1-.066-.153.07-.077.139-.153.213-.227a16.573,16.573,0,0,1,4.166-3.04c1.715-.927,3.594-1.579,5.229-2.674,1.509-1.011,3.029-2.625,3.085-4.532a.809.809,0,0,1-.641.349c-1.095.129-2.186.289-3.27.5a19.851,19.851,0,0,0-6.77,2.385,15.227,15.227,0,0,0-6.488,8.2,17.929,17.929,0,0,0-.547,8.89l-.167-.087a17.72,17.72,0,0,1,.889-9.712,15.224,15.224,0,0,1,6.519-7.565,20.077,20.077,0,0,1,6.01-2.13c1.046-.216,2.137-.4,3.214-.533a3.085,3.085,0,0,0,.948-.15.561.561,0,0,0,.282-.429Z" transform="translate(-16.234 -5.528)" fill="#8a3a1e"/>
      <path id="Caminho_40" data-name="Caminho 40" d="M33.338,4.822a7.229,7.229,0,0,1-.777,0c-.68.042-1.36.091-2.032.174a12.954,12.954,0,0,0-3.8,1,19.223,19.223,0,0,0-3.287,1.921A27.774,27.774,0,0,0,20.7,10.09a19.694,19.694,0,0,0-6,14.98l-.153-.129a20.282,20.282,0,0,1,1.276-7.69,19,19,0,0,1,6.2-8.426A20.666,20.666,0,0,1,27.38,5.579a13.383,13.383,0,0,1,3.138-.718c.558-.066,1.112-.115,1.666-.15.258,0,.519-.049.777-.042h.2Z" transform="translate(-13.073 -3.553)" fill="#8a3a1e"/>
      <path id="Caminho_41" data-name="Caminho 41" d="M11.156,41.181,11.267,41a22.224,22.224,0,0,0-.411,2.242,28.486,28.486,0,0,0-.373,3.748,2.517,2.517,0,0,1-.143-.272c.024-.767.112-1.534.206-2.28.126-.973.254-1.945.446-2.9l.084-.164Z" transform="translate(-10.34 -27.219)" fill="#8a3a1e"/>
      <path id="Caminho_42" data-name="Caminho 42" d="M39.855,1.606A18.1,18.1,0,0,0,33.5,2.979a17.382,17.382,0,0,0-5.02,3.092l-.6.547.39-.568a17.1,17.1,0,0,1,2.44-1.823A18.766,18.766,0,0,1,39.426,1.47C39.579,1.512,39.719,1.557,39.855,1.606Z" transform="translate(-21.765 -1.47)" fill="#8a3a1e"/>
      <path id="Caminho_43" data-name="Caminho 43" d="M77.664,21h0a6.076,6.076,0,0,1-.087,1.119,5.47,5.47,0,0,1-.544,1.59,8.182,8.182,0,0,1-1.346,1.823L75.52,25.5a7.778,7.778,0,0,0,1.346-1.781,5.438,5.438,0,0,0,.617-1.9,9.162,9.162,0,0,0,.045-1.238C77.57,20.726,77.619,20.862,77.664,21Z" transform="translate(-52.797 -13.918)" fill="#8a3a1e"/>
      <path id="Caminho_44" data-name="Caminho 44" d="M78.763,49.871l-.132.087h0a5.449,5.449,0,0,1-.7-.924,7.237,7.237,0,0,1-.858-2.461h0c-.052-.293-.091-.586-.119-.879v-.038h0a7.777,7.777,0,0,1,.624-3.918,17.78,17.78,0,0,1,1.07-1.938.436.436,0,0,0,0,.066,2.407,2.407,0,0,1-.031.272,14.212,14.212,0,0,0-.833,1.537,8.328,8.328,0,0,0,.227,7.213A5.783,5.783,0,0,0,78.763,49.871Z" transform="translate(-53.708 -26.438)" fill="#8a3a1e"/>
      <path id="Caminho_45" data-name="Caminho 45" d="M83.24,51.721a1.046,1.046,0,0,1-.084.132,2.545,2.545,0,0,1-.227-.248,7.059,7.059,0,0,1-1.178-2.6,7.321,7.321,0,0,1-.126-3.859c.021.119.042.234.066.349h0a7.289,7.289,0,0,0,.216,3.486,6.368,6.368,0,0,0,1.22,2.618Z" transform="translate(-56.644 -29.923)" fill="#8a3a1e"/>
    </g>
    <path id="Caminho_46" data-name="Caminho 46" d="M61.873,54.879c-.519.408-1.963-.875-2.008-2.318a1.207,1.207,0,0,1,0-.16c.272.99.812,2.144,1.45,1.984a.816.816,0,0,0,.575-.533C62.054,54.286,62.138,54.669,61.873,54.879Z" transform="translate(-38.994 -34.132)" fill="#e56b44" opacity="0.2"/>
    <path id="Caminho_47" data-name="Caminho 47" d="M47.345,29.889c0,.021-.1.254-.251.617a3.375,3.375,0,0,1-.349.136c-.125.119-2.956.457-2.789-.718a4.532,4.532,0,0,1-3.531,1.3c-2.057-.216-1.457-1.252-1.426-1.3-.073.038-2.092,1.157-2.789.715s.15-1.119.15-1.119-4.124,2.74-4.574,4.759A7.143,7.143,0,0,0,33.268,40.7c1.788,2.256,3.455,4.312,5.5,4.413a7.08,7.08,0,0,0,3.406-.885,11.616,11.616,0,0,1-2.12,1.394,4.626,4.626,0,0,1-1.286.349,3.092,3.092,0,0,1-.314.021,4.683,4.683,0,0,1-2.789-1.29A16.626,16.626,0,0,1,33.881,43c-.321-.349-.634-.7-.931-1.077a21.178,21.178,0,0,1-1.862-2.639c-1.339-2.3-.3-3.273-.3-3.273-2.154-2-2.378-4.605-.966-5.212,1.14-.481,1.611,1.91,1.809,2.385a.7.7,0,0,0,.153-.216A6.275,6.275,0,0,1,33.5,30.607a37.891,37.891,0,0,0,4.089-2.252c-.063.063-1.192,1.161-.969,1.447.167.223,1.7.216,3.169-.6-.164.174-.272.324-.261.418.035.373.743,1.394,3.2.485s2.9-2.092,2.9-2.092.819.077,0,.781-1.3,1.154-1.3,1.154A2.552,2.552,0,0,0,47.345,29.889Z" transform="translate(-18.846 -18.245)" fill="#e56b44" opacity="0.2"/>
    <path id="Caminho_48" data-name="Caminho 48" d="M43.55,34.153a5.2,5.2,0,0,1,2.6-.631,3.287,3.287,0,0,1,2.35,1.116s.237-2.012-1.339-2.269S43.55,34.153,43.55,34.153Z" transform="translate(-28.368 -21.069)" fill="#b5461e"/>
    <path id="Caminho_49" data-name="Caminho 49" d="M66.91,37.27c.112-.261,1.154-1.844,2.531-1.666A1.521,1.521,0,0,1,70.7,37.27a2.193,2.193,0,0,0-1.6-.519A6.571,6.571,0,0,0,66.91,37.27Z" transform="translate(-43.584 -23.182)" fill="#b5461e"/>
    <path id="Caminho_50" data-name="Caminho 50" d="M54.1,106.21c-.875.035-2.127,1.394-2.893,2.35-.408.505-.7.892-.7.892-2.974.349-9.064-1.415-9.064-1.415a3.246,3.246,0,0,1,.432.872,53.18,53.18,0,0,1,1.429,5.139l2.231.892s.15.638.3,1.3.293,1.342.293,1.443c0,.206-2.3-.136-2.3-.136l.031.132,2.273,9.813s-.565.3-1.527.75c-2.562,1.192-7.948,3.413-12.989,3.713a25.8,25.8,0,0,1-7.234-.7,35.554,35.554,0,0,1-3.486-1,29.546,29.546,0,0,1-3.1-1.238c.2-7.7,3.4-17.124,4.051-18.958.073-.209.115-.321.115-.321a13.087,13.087,0,0,1-1.555-1.865c-3.1-4.459-4.6-11.48-4.769-16.733a15.287,15.287,0,0,1,.46-4.609,5.942,5.942,0,0,1,3.713-4.34,5.208,5.208,0,0,0,1.2-.659,17.134,17.134,0,0,0,2.9-2.894,8.082,8.082,0,0,1,.561-.607c.049-.045.094-.084.143-.122a6.624,6.624,0,0,0,.872,2.224c.415.662,1.084,1.82,1.83,3.092,1.471,2.51,3.232,5.463,3.922,5.926A29.186,29.186,0,0,0,31.6,83.1c0-.15-.017-.3-.031-.45-.136-1.837-.39-2.789-.429-3.455a6.021,6.021,0,0,0,1.8,1.185c.7.349,1.461.659,2.207.962a18.864,18.864,0,0,1,2.97,1.339c1.116.823,2.308,2.608,3.943,6.533S45.4,102.292,45.4,102.292C48.173,105.039,54.1,106.21,54.1,106.21Z" transform="translate(-10.174 -50.749)" fill="url(#linear-gradient-15)"/>
    <path id="Caminho_51" data-name="Caminho 51" d="M95.848,144.425c-.408.505-.7.892-.7.892-2.974.349-9.064-1.415-9.064-1.415a3.246,3.246,0,0,1,.432.872,14.089,14.089,0,0,1-2.29-8.83c.516-3.312,1.381-2.963,1.381-2.963-.763,2.876.063,6.906,2.092,8.6C89.67,143.2,92.111,143.787,95.848,144.425Z" transform="translate(-54.809 -86.614)" opacity="0.5" fill="url(#linear-gradient-16)"/>
    <path id="Caminho_52" data-name="Caminho 52" d="M47.112,90.655C42.346,86.7,40.07,80.73,39.39,78.639a8.082,8.082,0,0,1,.561-.607c.049-.045.094-.084.143-.122a6.624,6.624,0,0,0,.872,2.224c.415.662,1.084,1.82,1.83,3.092,1.471,2.51,3.232,5.463,3.922,5.926A29.186,29.186,0,0,0,47.08,83.1c0-.15-.017-.3-.031-.45-.136-1.837-.39-2.789-.429-3.455a6.02,6.02,0,0,0,1.8,1.185C48.81,84.624,47.112,90.655,47.112,90.655Z" transform="translate(-25.658 -50.749)" fill="#f0fbff"/>
    <path id="Caminho_53" data-name="Caminho 53" d="M39.346,195.955l-.143,1.367-.641,6.181s-5.309.136-7.192-.962l.7-6.23.188-1.68S37.314,196.23,39.346,195.955Z" transform="translate(-20.434 -126.779)" fill="#94e6ed"/>
    <path id="Caminho_54" data-name="Caminho 54" d="M40.649,195.955l-.143,1.367a38.314,38.314,0,0,1-7.136-1.011l.188-1.68S38.617,196.23,40.649,195.955Z" transform="translate(-21.737 -126.779)" fill="#f0fbff"/>
    <path id="Caminho_55" data-name="Caminho 55" d="M35.565,80.16c.415.662,1.084,1.82,1.83,3.092a21.22,21.22,0,0,1-6.275-1.694,25.4,25.4,0,0,0,3.444-3.486c.049-.045.094-.084.143-.122a6.624,6.624,0,0,0,.858,2.21Z" transform="translate(-20.271 -50.775)" fill="url(#linear-gradient-17)"/>
    <path id="Caminho_56" data-name="Caminho 56" d="M64.136,83.761A7.15,7.15,0,0,1,60.59,85.5c0-.15-.017-.3-.031-.45-.136-1.837-.39-2.789-.429-3.455C60.782,82.363,62.525,83.113,64.136,83.761Z" transform="translate(-39.168 -53.152)" fill="url(#linear-gradient-18)"/>
    <path id="Caminho_57" data-name="Caminho 57" d="M75.92,114.3c.077.282.15.565.22.84a7.669,7.669,0,0,0,2.493-.931,8.424,8.424,0,0,0,.2,6.062c.746,1.991,3.022,6.146,2.28,3.807s-2.032-4.881-2.182-6.209a20.078,20.078,0,0,1,.743-4.668,5.55,5.55,0,0,0,.763-6.129c-.875-1.876-2.6-5.926-2.845-5.623s2.134,4.881,2.677,6.275-.349,4.026-1.29,5.229A6.61,6.61,0,0,1,75.92,114.3Z" transform="translate(-49.453 -66.072)" fill="#94e6ed"/>
    <path id="Caminho_58" data-name="Caminho 58" d="M68.285,139.77a16.289,16.289,0,0,0,1.743-.23c-.07-.275-.143-.554-.22-.83a24.194,24.194,0,0,1-2.388.394c.031.244.063.485.1.722Z" transform="translate(-43.916 -90.353)" fill="#94e6ed"/>
    <path id="Caminho_59" data-name="Caminho 59" d="M45.412,127.543l-.6-.373-.209-.129c-.666-.408-1.436-.816-2.252-1.21l-.634-.3c-3.535-1.638-7.575-2.974-7.575-2.974-.049-2.057-1.761-6.916-1.761-6.916,1.492,1.555,5,1.858,8.105,1.743l-.094-.7a20.914,20.914,0,0,1-2.283.1c-3.225-.045-5.8-1.645-6.47-4.117S28.5,105.538,26.8,104.21a9.064,9.064,0,0,0,.84,1.785,75.715,75.715,0,0,1,3.423,8.416c1.042,3.019,2.726,9.012,2.726,9.012a77.936,77.936,0,0,1,8.14,3.4l.641.286,1.189.523,1.109.5.6.282a56.052,56.052,0,0,1,5.135,2.761,58.4,58.4,0,0,0-5.191-3.629Z" transform="translate(-17.457 -67.88)" fill="#94e6ed"/>
    <path id="Caminho_60" data-name="Caminho 60" d="M45.974,132.823c-2.663-.478-5.1-.969-7.29-1.513l-.6-.157c-.53-.136-1.046-.275-1.555-.418l-.7-.2c-7.565-2.259-12.2-5.466-16.036-11.5-2.629-4.148-3.657-12.264-3.674-16.392a15.287,15.287,0,0,0-.45,4.581c.171,5.271,1.666,12.3,4.776,16.754h0l.035.049.237.328.126.167c.08.1.164.206.248.31l.126.157c.091.108.185.213.279.321l.1.119c.132.143.265.282.4.415,0,0-.042.112-.115.321-.648,1.834-3.835,11.253-4.051,18.958a29.543,29.543,0,0,0,3.085,1.224,35.55,35.55,0,0,0,3.486,1c-2.639-9.113-.314-17.375.7-19.108l-.394-.349a36.467,36.467,0,0,0,11.853,4.476l.7.143c.38.073.767.143,1.161.213l.634.1.091.017c1.945.3,4.685.823,4.685.823s2.3.349,2.3.136A6.937,6.937,0,0,0,45.974,132.823Z" transform="translate(-10.193 -66.858)" opacity="0.5" fill="url(#linear-gradient-19)"/>
    <path id="Caminho_61" data-name="Caminho 61" d="M47.538,85.589c-.7-.505-2.545-3.863-4.033-6.624l-.045-.08c-.4-.743-.777-1.443-1.095-2.025-.223-.408-.422-.76-.579-1.046a7.321,7.321,0,0,1-.77-1.956c-.038-.153-.07-.3-.1-.457a15.8,15.8,0,0,1-.244-2.3,8.48,8.48,0,0,0,.858-.1A17.288,17.288,0,0,0,43.3,72.684c.234.188.471.349.7.516a3.8,3.8,0,0,0,2.092.774,3.094,3.094,0,0,0,.314-.021,4.626,4.626,0,0,0,1.286-.349,2.06,2.06,0,0,0-.244,1.171c.021.37.091.809.178,1.394a.052.052,0,0,1,0,.024c.087.589.181,1.335.248,2.311a33.467,33.467,0,0,1-.331,7.084Z" transform="translate(-26.492 -46.248)" fill="url(#linear-gradient-20)"/>
    <path id="Caminho_62" data-name="Caminho 62" d="M47.454,74.8c.021.37.091.809.178,1.394a2.981,2.981,0,0,0-1.848-1.3c-1.785-.408-2.866,1.091-3.42,1.942-.223-.408-.422-.76-.579-1.046a7.61,7.61,0,0,1-.872-2.412,15.8,15.8,0,0,1-.244-2.3A8.48,8.48,0,0,0,41.528,71,17.288,17.288,0,0,0,43.3,72.684a4.736,4.736,0,0,0,2.789,1.29,3.092,3.092,0,0,0,.314-.021,4.626,4.626,0,0,0,1.286-.349A2.06,2.06,0,0,0,47.454,74.8Z" transform="translate(-26.492 -46.248)" fill="#e56b44" opacity="0.2"/>
    <path id="Caminho_63" data-name="Caminho 63" d="M52.833,95.38c-.7-.505-2.545-3.863-4.033-6.624.837,1.513,3.587,5.41,3.587,5.41.634-1.632.589-7.6.544-8.137.087.589.181,1.335.248,2.311a33.467,33.467,0,0,1-.345,7.039Z" transform="translate(-31.788 -56.038)" fill="#e56b44" opacity="0.2"/>
    <path id="Caminho_64" data-name="Caminho 64" d="M44,73.21a9.468,9.468,0,0,0-2.984.655c-.038-.153-.07-.3-.1-.457a15.8,15.8,0,0,1-.244-2.3A8.479,8.479,0,0,0,41.528,71,17.288,17.288,0,0,0,43.3,72.684,8.167,8.167,0,0,0,44,73.21Z" transform="translate(-26.492 -46.248)" fill="#e56b44" opacity="0.2"/>
    <path id="Caminho_65" data-name="Caminho 65" d="M94.077,189.649c-.349.181-.7.349-1.046.519.4-.216.816-.439,1.238-.673a.478.478,0,0,0,.16-.53c-.059-.213-.227-.314-.377-.23-7.262,4.079-12.243,5.01-14.4,2.688a7.571,7.571,0,0,1-1.489-3.43l-.634-.153a11.013,11.013,0,0,0,1.339,3.678L78.7,191.4a8.854,8.854,0,0,1-2.336-3.866c-.237-.066-.474-.136-.7-.209a10.456,10.456,0,0,0,2.754,4.783,7.84,7.84,0,0,0,5.1,1.666c2.876,0,6.439-1.116,10.744-3.354a.474.474,0,0,0,.171-.526C94.394,189.67,94.227,189.562,94.077,189.649Z" transform="translate(-49.29 -122.017)" fill="url(#linear-gradient-21)"/>
    <path id="Caminho_66" data-name="Caminho 66" d="M113.856,198.927c-.2.122-1.426.927-2.834,2.036-.641.505-1.318,1.074-1.952,1.67.213-1.206.464-2.834.628-4.6.174-1.872.349-4.107.453-5.818.042-.607.077-1.143.1-1.583a26.711,26.711,0,0,1,2.318,1.778S113.354,197.438,113.856,198.927Z" transform="translate(-71.047 -124.173)" fill="url(#linear-gradient-22)"/>
    <path id="Caminho_67" data-name="Caminho 67" d="M113.042,200.963a34.335,34.335,0,0,0-.872-8.75c.042-.607.077-1.143.1-1.583a26.709,26.709,0,0,1,2.318,1.778s.781,5.03,1.283,6.519C115.681,199.049,114.45,199.854,113.042,200.963Z" transform="translate(-73.066 -124.173)" fill="#e56b44" opacity="0.2"/>
    <path id="Caminho_68" data-name="Caminho 68" d="M126.261,170.08h-.017a7.214,7.214,0,0,1,.146.753c.059.387.129.868.2,1.394s.15,1.2.22,1.806l.132,1.175c.073.662.132,1.238.171,1.621.035.307.052.488.052.488s-.1.059-.153.087a15.081,15.081,0,0,1-7.178,1.743,6.428,6.428,0,0,1-3.58-1.457l-.248-.209h0c-.15-.132-.265-.244-.349-.324l-.122-.129c-.031-.087-.059-.185-.091-.293h0c-.08-.279-.164-.624-.251-1.011s-.146-.7-.22-1.074c-.1-.505-.2-1.046-.286-1.53-.1-.561-.192-1.091-.261-1.523a.9.9,0,0,0-.024-.139c-.094-.572-.15-.945-.15-.945a1.642,1.642,0,0,0-.216-.2c-.16-.136-.39-.317-.645-.509h0c-.509-.387-1.119-.823-1.457-1.067l-.261-.188c0-.22-.028-.464-.031-.725s0-.464,0-.7c0-.366.031-.757.066-1.157.042-.488.1-.994.192-1.5a13.028,13.028,0,0,1,.429-1.764,7.83,7.83,0,0,1,.551-1.311,5.043,5.043,0,0,1,.432-.673,6.079,6.079,0,0,1,.418-.481,7.6,7.6,0,0,1,1.21-1.008,12.525,12.525,0,0,1,2.538-1.276c.261-.1.467-.174.6-.23a6.513,6.513,0,0,1,3.772-.621c.268.056.558.122.861.2a12.132,12.132,0,0,1,3.507,1.53,7.669,7.669,0,0,1,1.116.9,5.759,5.759,0,0,1,1.147,1.565l.021.042a12.05,12.05,0,0,1,.505,1.217c.157.457.321.91.471,1.394.129.4.251.809.349,1.189s.223.763.314,1.088.153.558.206.753l.115.436a25.513,25.513,0,0,0-2.995,1.834c-.582.4-1.046.725-1.189.83h-.024Z" transform="translate(-72.718 -102.281)" fill="url(#linear-gradient-23)"/>
    <path id="Caminho_69" data-name="Caminho 69" d="M131.239,163.109a26.507,26.507,0,0,1-6.8,1.171c-4.162.265-6.08-.349-6.794-.669a7.6,7.6,0,0,1,1.21-1.007,21.064,21.064,0,0,0,11.274-.394,7.671,7.671,0,0,1,1.116.9Z" transform="translate(-76.629 -105.661)" fill="#83c4a3" opacity="0.3"/>
    <path id="Caminho_70" data-name="Caminho 70" d="M130.294,170.539a29.1,29.1,0,0,1-7.22.917,44.053,44.053,0,0,1-9.454-.774,7.829,7.829,0,0,1,.551-1.311,35.1,35.1,0,0,0,15.6-.091l.021.042A11.409,11.409,0,0,1,130.294,170.539Z" transform="translate(-74.01 -110.266)" fill="#83c4a3" opacity="0.3"/>
    <path id="Caminho_71" data-name="Caminho 71" d="M129.971,178.013a26.36,26.36,0,0,1-9.259,1.457c-5.686.091-8.126-.418-8.872-.624.042-.488.1-.994.192-1.5a33.071,33.071,0,0,0,8.68.854,60.018,60.018,0,0,0,8.893-1.394C129.734,177.225,129.856,177.633,129.971,178.013Z" transform="translate(-72.851 -115.171)" fill="#83c4a3" opacity="0.3"/>
    <path id="Caminho_72" data-name="Caminho 72" d="M130.469,185.989a25.511,25.511,0,0,0-2.995,1.834,48.15,48.15,0,0,1-6.425.847,29.13,29.13,0,0,1-7.67-.275h0c-.509-.387-1.119-.823-1.457-1.067l-.261-.188c0-.22-.028-.464-.031-.725a23.585,23.585,0,0,0,9.169.889,42.43,42.43,0,0,0,9.555-1.743Z" transform="translate(-72.714 -120.87)" fill="#83c4a3" opacity="0.3"/>
    <path id="Caminho_73" data-name="Caminho 73" d="M131.741,198.074a18.625,18.625,0,0,1-6.007.84c-3.521.1-5.159.073-5.9.042-.1-.561-.192-1.091-.261-1.523a.9.9,0,0,0-.024-.139,37.287,37.287,0,0,0,12-.614C131.605,197.067,131.675,197.548,131.741,198.074Z" transform="translate(-77.873 -128.114)" fill="#83c4a3" opacity="0.3"/>
    <path id="Caminho_74" data-name="Caminho 74" d="M133.161,207.035a41.074,41.074,0,0,1-6.561.879,13.036,13.036,0,0,1-5.191-.373c-.07-.349-.146-.7-.22-1.074a50.272,50.272,0,0,0,11.853-.607Z" transform="translate(-78.942 -134.094)" fill="#83c4a3" opacity="0.3"/>
    <path id="Caminho_75" data-name="Caminho 75" d="M134.27,214.192c-.049.028-.1.059-.153.087a15.081,15.081,0,0,1-7.178,1.743,6.428,6.428,0,0,1-3.58-1.457l-.248-.209h0c-.15-.132-.265-.244-.349-.324l-.122-.129c-.031-.087-.059-.185-.091-.293.9.526,2.5,1.422,5.926,1.088a33.281,33.281,0,0,0,5.735-.994C134.253,214.011,134.27,214.192,134.27,214.192Z" transform="translate(-79.827 -139.142)" fill="#83c4a3" opacity="0.3"/>
    <path id="Caminho_76" data-name="Caminho 76" d="M133.619,157.281a3.138,3.138,0,0,1-2.845,2.36,2.161,2.161,0,0,1-2.385-1.712c.261-.1.467-.174.6-.23a6.513,6.513,0,0,1,3.772-.621C133.027,157.134,133.316,157.2,133.619,157.281Z" transform="translate(-83.631 -102.262)" fill="#00a9ad" opacity="0.4"/>
    <path id="Caminho_77" data-name="Caminho 77" d="M120.626,190.841c-.15-.132-.265-.244-.349-.324l-.122-.129a53.044,53.044,0,0,1-1.109-5.435,15.024,15.024,0,0,0,.3-3.72c-.254-2.127-.572-3.622-.593-3.713a14.787,14.787,0,0,1,1.224,5.163A42.477,42.477,0,0,0,120.626,190.841Z" transform="translate(-77.352 -115.633)" fill="#00a9ad" opacity="0.4"/>
    <path id="Caminho_78" data-name="Caminho 78" d="M114.139,188.041l-.094,1.13c-.485-.411-1.593-1.213-2.092-1.576l-.261-.188c-.031-.408-.038-.9-.024-1.436C112.246,186.5,113.445,187.549,114.139,188.041Z" transform="translate(-72.734 -121.138)" fill="#00a9ad" opacity="0.4"/>
    <path id="Caminho_79" data-name="Caminho 79" d="M134.876,182.775h0a39.1,39.1,0,0,1,4.208-2.681s-.126-.481-.321-1.189a17.573,17.573,0,0,0-4.148,2.66,19.125,19.125,0,0,1-.439-5.055,10.964,10.964,0,0,0-.1,5.369,20.539,20.539,0,0,1,.505,7.066c-.237.708-2.092,1.9-5.079,2.269s-4.128-1.007-4.64-.816a6.429,6.429,0,0,0,3.58,1.457,15.081,15.081,0,0,0,7.178-1.743c.056-.028.1-.059.153-.087s-.617-6.143-.917-7.237Z" transform="translate(-81.332 -114.975)" fill="#00a9ad" opacity="0.4"/>
    <path id="Caminho_80" data-name="Caminho 80" d="M149.185,159.69a5.423,5.423,0,0,1-.08.83c-.279,1.656-1.189,3.518-1.415,3.518a.223.223,0,0,1-.185-.07c-.279-.286.073-1.394.188-1.673l-.042.094h0c-.349.75-.805,1.625-1.22,1.541a.049.049,0,0,1-.035-.024c-.136-.178.244-1.283.4-1.719l-.052.077h0c-.4.589-.913,1.579-1.29,1.527a.087.087,0,0,1-.052-.035,7.043,7.043,0,0,1,.572-2.507h0a.533.533,0,0,1,.049-.136l-.063.171a14.687,14.687,0,0,1-.666,1.583h0a1.5,1.5,0,0,1-.415.572c-.119.07-.2.084-.258.052-.181-.1-.094-.614.091-1.2a23.47,23.47,0,0,0,.593-2.789s-.474.485-1.213,1.136c-.523.457-1.007.244-1.112.045a.119.119,0,0,1,.08-.188,5.9,5.9,0,0,0,1.485-2.4c.185-.526.743-.659,1.457-.617a10.837,10.837,0,0,1,1.743.3A1.928,1.928,0,0,1,149.185,159.69Z" transform="translate(-93.118 -102.573)" fill="url(#linear-gradient-24)"/>
    <path id="Caminho_81" data-name="Caminho 81" d="M145.246,164.046a20.242,20.242,0,0,1-.624,2.113c-.181-.1-.094-.614.091-1.2a23.473,23.473,0,0,0,.593-2.789s-.474.485-1.213,1.133c-.526.464-1.007.248-1.112.049a1.206,1.206,0,0,0,1.189-.471c.415-.561,1.133-1.394,1.293-1.342A4.467,4.467,0,0,1,145.246,164.046Z" transform="translate(-93.135 -105.22)" fill="#e56b44" opacity="0.2"/>
    <path id="Caminho_82" data-name="Caminho 82" d="M150.292,168.46a13.981,13.981,0,0,1-.662,1.583C149.832,169.534,150.108,168.92,150.292,168.46Z" transform="translate(-97.467 -109.732)" fill="#e56b44" opacity="0.2"/>
    <path id="Caminho_83" data-name="Caminho 83" d="M150.562,168.062a4.849,4.849,0,0,1-.7,1.478,7.029,7.029,0,0,1,.572-2.507h0c.1-.244.192-.443.244-.554C150.914,165.964,150.935,166.968,150.562,168.062Z" transform="translate(-97.597 -108.351)" fill="#e56b44" opacity="0.2"/>
    <path id="Caminho_84" data-name="Caminho 84" d="M153.623,167.441a7.635,7.635,0,0,1-.858,2.21c-.136-.178.241-1.283.4-1.719l-.052.077c.112-.38.234-.812.349-1.248C153.752,165.837,153.85,166.363,153.623,167.441Z" transform="translate(-99.491 -108.315)" fill="#e56b44" opacity="0.2"/>
    <path id="Caminho_85" data-name="Caminho 85" d="M155.8,169.684c-.279-.289.073-1.394.188-1.673,0,.031-.028.063-.045.094a15.688,15.688,0,0,0,.488-1.576c.153-.628.2-.171.087.924A7.834,7.834,0,0,1,155.8,169.684Z" transform="translate(-101.42 -108.289)" fill="#e56b44" opacity="0.2"/>
    <path id="Caminho_86" data-name="Caminho 86" d="M133.4,151.69v.429a6.834,6.834,0,0,1-.526,2.82.844.844,0,0,1-.094.125c-.753.913-2.74.261-2.883.045-.042-.063-.164-.307-.314-.624l-.418-.9a9.859,9.859,0,0,0,3.835-1.579C133.12,151.906,133.26,151.8,133.4,151.69Z" transform="translate(-84.133 -98.808)" fill="url(#linear-gradient-25)"/>
    <path id="Caminho_87" data-name="Caminho 87" d="M133.376,152.718a6.833,6.833,0,0,1-.526,2.82.844.844,0,0,1-.094.126,9.077,9.077,0,0,0-3.2-.579l-.418-.9a9.859,9.859,0,0,0,3.835-1.579Z" transform="translate(-84.12 -99.407)" fill="#e56b44" opacity="0.2"/>
    <path id="Caminho_88" data-name="Caminho 88" d="M154.85,159.717a5.421,5.421,0,0,1-.08.83,5.091,5.091,0,0,0-3.12-3.036,10.838,10.838,0,0,1,1.743.3A1.928,1.928,0,0,1,154.85,159.717Z" transform="translate(-98.783 -102.599)" fill="#e56b44" opacity="0.2"/>
    <path id="Caminho_89" data-name="Caminho 89" d="M98.074,235.512s-2.642,8.443-3.943,10.859-5.17,9.186-5.17,9.186c-.094-.192-.621-.411-.983-.547-.2-.073-.349-.122-.349-.122s.892-6.582,1.562-10.11,1.007-7.816,1.886-10.005a10.671,10.671,0,0,1,2.06-3.333A25.717,25.717,0,0,1,96.7,234.3C97.437,234.954,98,235.47,98.074,235.512Z" transform="translate(-57.081 -150.756)" fill="url(#linear-gradient-26)"/>
    <path id="Caminho_90" data-name="Caminho 90" d="M99.4,240.86s-2.642,8.443-3.943,10.859-5.17,9.186-5.17,9.186c-.094-.192-.258-.275-.621-.411,4.365-5.689,5.808-14.816,6.1-16.5a8.3,8.3,0,0,1,2.259-4.344C98.765,240.3,99.334,240.818,99.4,240.86Z" transform="translate(-58.41 -156.104)" fill="#e56b44" opacity="0.2"/>
    <path id="Caminho_91" data-name="Caminho 91" d="M122.263,217.874a10.567,10.567,0,0,1-.722,3.688c-.7,1.743-3.531,4.121-5.323,5.5-.875.676-1.5,1.112-1.5,1.112a6.152,6.152,0,0,0-1.3-1.652,6.99,6.99,0,0,0-2.242-1.335h0a8.931,8.931,0,0,0-1.632-.432,7.581,7.581,0,0,0-1.224-.115l-.129-.08h0c-.125-.087-.268-.192-.422-.31h0c-.289-.223-.617-.5-.959-.795-1.523-1.325-3.336-3.138-3.336-3.138a10.082,10.082,0,0,1,.805-1.046,16.181,16.181,0,0,1,1.161-1.2,34.222,34.222,0,0,1,3.375-2.74l.171-.122c.655-.467,1.126-.774,1.241-.844a1.844,1.844,0,0,0,.474.46c.119.1.254.216.411.349l.136.1a6.3,6.3,0,0,0,3.28,1.227h.15a9.941,9.941,0,0,0,1.283-.035h0l.209-.021h0a16.256,16.256,0,0,0,3.775-.906h0c.1-.038.2-.073.3-.115l.349-.143a10.606,10.606,0,0,0,1.1-.53,6.362,6.362,0,0,1,.565,2.705C122.263,217.609,122.263,217.727,122.263,217.874Z" transform="translate(-67.405 -139.637)" fill="url(#linear-gradient-27)"/>
    <path id="Caminho_92" data-name="Caminho 92" d="M125.018,244.242c-.875.676-1.5,1.112-1.5,1.112a4.967,4.967,0,0,0-3.486-2.97h-.056c-.7-.2-1.224-.349-1.632-.432-1.175-.279-1.335-.206-1.349-.2l.84-.98a.241.241,0,0,1,.066,0C118.6,240.648,123.17,240.508,125.018,244.242Z" transform="translate(-76.212 -156.805)" fill="#b00011"/>
    <path id="Caminho_93" data-name="Caminho 93" d="M153.015,219.886a22.391,22.391,0,0,1-2.325-2.311c.1-.038.2-.073.3-.115a22.288,22.288,0,0,0,2.025,2.032C153.015,219.621,153.015,219.74,153.015,219.886Z" transform="translate(-98.157 -141.65)" fill="#e01722"/>
    <path id="Caminho_94" data-name="Caminho 94" d="M121.183,216.8a3.1,3.1,0,0,1-1.255.171,8.367,8.367,0,0,1-1.178-.1l.171-.122a8.19,8.19,0,0,0,.92.077,3.322,3.322,0,0,0,1.206-.125Z" transform="translate(-77.352 -141.155)" fill="#e01722"/>
    <path id="Caminho_95" data-name="Caminho 95" d="M136.494,220.39a7.98,7.98,0,0,1-1.394,1.394.077.077,0,0,1-.1,0,1.11,1.11,0,0,1-.15-1.339h.15a1.057,1.057,0,0,0,.063,1.182,7.742,7.742,0,0,0,1.22-1.217h0Z" transform="translate(-87.737 -143.558)" fill="#e01722"/>
    <path id="Caminho_96" data-name="Caminho 96" d="M140.119,222.35c-1.028,2.576-6.819,6.624-6.819,6.624a6.153,6.153,0,0,0-1.3-1.652c1.576-1.621,6.275-6.456,6.4-6.624a13.119,13.119,0,0,0,.77-4.588,10.6,10.6,0,0,0,1.1-.53C140.973,216.884,141.141,219.8,140.119,222.35Z" transform="translate(-85.983 -140.425)" fill="#c80103" opacity="0.4"/>
    <path id="Caminho_97" data-name="Caminho 97" d="M119.688,247.388c-.188.185-1.6,1.523-1.6,1.523a20.481,20.481,0,0,1,.743,5.616c.112,3.831-.631,12.425-.631,12.425a.656.656,0,0,0-.328.031c-.31.077-.715.227-.715.227s-1.154-3.308-1.973-5.763-3.769-11.309-4.051-13.575,1.482-4.051,2.151-4.023a7.911,7.911,0,0,1,4.828,1.666C119.179,246.37,119.782,247.3,119.688,247.388Z" transform="translate(-72.371 -158.839)" fill="url(#linear-gradient-28)"/>
    <path id="Caminho_98" data-name="Caminho 98" d="M128.193,250.782c-.188.185-1.6,1.523-1.6,1.523a20.481,20.481,0,0,1,.743,5.616c.112,3.831-.631,12.425-.631,12.425a.656.656,0,0,0-.328.031c.066-5.229-2.217-17.975-2.217-17.975.349.091,1.147-1.22,2.632-3.343C127.817,249.883,128.288,250.692,128.193,250.782Z" transform="translate(-80.876 -162.234)" fill="#e56b44" opacity="0.2"/>
    <path id="Caminho_99" data-name="Caminho 99" d="M112.083,254.71a3.887,3.887,0,0,0,1.339.31,3.343,3.343,0,0,1-.941.446c-.248,0-.621-.756-.621-.756Z" transform="translate(-72.864 -165.914)" fill="#e56b44" opacity="0.2"/>
    <path id="Caminho_100" data-name="Caminho 100" d="M97.907,241s.638.746,1.046.732c0,0-.645.258-.892.136S97.907,241,97.907,241Z" transform="translate(-63.764 -156.983)" fill="#e56b44" opacity="0.2"/>
    <path id="Caminho_101" data-name="Caminho 101" d="M125.258,310.541a8.074,8.074,0,0,1-4.288,1.436s.024-.07.07-.188c.244-.61,1.112-2.531,2.555-2.977,1.046-.328,1.44.589,1.583,1.21A3.624,3.624,0,0,1,125.258,310.541Z" transform="translate(-78.798 -201.11)" fill="#57585a"/>
    <path id="Caminho_102" data-name="Caminho 102" d="M125.258,312.929a8.074,8.074,0,0,1-4.288,1.436s.024-.07.07-.188a19.974,19.974,0,0,0,4.124-1.767A3.624,3.624,0,0,1,125.258,312.929Z" transform="translate(-78.798 -203.499)" fill="#57585a" opacity="0.4"/>
    <path id="Caminho_103" data-name="Caminho 103" d="M109.09,232.812l-.913.906h0l-.422-.31h0c-.289-.223-.617-.5-.959-.795-1.523-1.325-3.336-3.138-3.336-3.138a10.086,10.086,0,0,1,.805-1.046C105.207,229.357,109.09,232.812,109.09,232.812Z" transform="translate(-67.392 -148.795)" fill="#b00011"/>
    <path id="Caminho_104" data-name="Caminho 104" d="M81.673,298.49l-.4.83-.223.467-4.612-.349s.16-.157.425-.39a6.422,6.422,0,0,1,3-1.691A1.771,1.771,0,0,1,81.673,298.49Z" transform="translate(-49.792 -193.689)" fill="#57585a"/>
    <path id="Caminho_105" data-name="Caminho 105" d="M81.275,302.407l-.223.467-4.612-.349s.16-.157.425-.39A20.06,20.06,0,0,1,81.275,302.407Z" transform="translate(-49.792 -196.777)" fill="#57585a" opacity="0.4"/>
    <path id="Caminho_106" data-name="Caminho 106" d="M120.321,228c-1.105.624-4.107,3.636-5.926,5.456A16.536,16.536,0,0,1,113,232.344C116.138,229.286,119.317,228,120.321,228Z" transform="translate(-73.607 -148.515)" fill="#c80103" opacity="0.4"/>
    <path id="Caminho_107" data-name="Caminho 107" d="M123.907,122.205a2.009,2.009,0,0,1-.349.425,2.677,2.677,0,0,1-2.677.6,5.135,5.135,0,0,1-.955,1,9.636,9.636,0,0,1-4.239,1.9,7.555,7.555,0,0,1-3.891-.216c-2.4-.858-3.72-3.573-4.1-5.655a6.753,6.753,0,0,1-.119-1.091c-.035-2.092.92-2.266.92-2.266s-.035-.7-.035-1.743c0,0,1.046-4.964,3.486-5.78,0,0,.4,2.21,1.14,2.092,0,0,.6-2.632.994-2.092s.1,3.549.743,3.249-.146-2.625.251-2.378.795,3.371,2.726,4.117,4.065,2.032,2.44,6.641c0,0,.2-.16.5-.38.7-.5,1.893-1.293,2.479-1.105a1.39,1.39,0,0,1,.739,1.046,2.622,2.622,0,0,1-.049,1.632Z" transform="translate(-70.074 -71.202)" fill="url(#linear-gradient-29)"/>
    <path id="Caminho_108" data-name="Caminho 108" d="M162.576,117.88a7.048,7.048,0,0,0-.906.628S162.106,118.236,162.576,117.88Z" transform="translate(-105.31 -76.785)" fill="#d63800"/>
    <path id="Caminho_109" data-name="Caminho 109" d="M124.131,122.205a2.008,2.008,0,0,1-.349.425,2.677,2.677,0,0,1-2.677.6,5.135,5.135,0,0,1-.955,1,9.636,9.636,0,0,1-4.239,1.9,7.554,7.554,0,0,1-3.891-.216c-2.4-.858-3.72-3.573-4.1-5.655,1.157,3.633,3.308,5.187,7.394,4.9,4.232-.3,4.675-3.681,4.825-5.494a4.257,4.257,0,0,0-2.862-4.511,2.8,2.8,0,0,1-1.743-2.636.505.505,0,0,1-.439.4c-.743.073-.931-2.493-.966-2.716a5.287,5.287,0,0,1-.457,1.527c-.418.6-1.628-1.527-1.628-1.527-1.489.931-1.858,2.193-2.489,3.591s-.6,2.918-.819,3.106c0,0-.035-.7-.035-1.743,0,0,1.046-4.964,3.486-5.78,0,0,.4,2.21,1.14,2.092,0,0,.6-2.632.994-2.092s.1,3.549.743,3.249-.146-2.625.251-2.378.795,3.371,2.726,4.117,4.065,2.032,2.44,6.641c0,0,.2-.16.5-.38a2.276,2.276,0,0,1-.373.289,4.305,4.305,0,0,1,3.591-.349,2.622,2.622,0,0,1-.063,1.632Z" transform="translate(-70.298 -71.203)" fill="#e56b44" opacity="0.2"/>
    <path id="Caminho_110" data-name="Caminho 110" d="M134.788,137.966c.533.962,2.475-.572,2.123-1.328C136.489,135.749,134.136,136.795,134.788,137.966Z" transform="translate(-87.725 -88.787)" fill="#ff4949" opacity="0.5"/>
    <path id="Caminho_111" data-name="Caminho 111" d="M109.832,134.34c.394-.321-.652-2.05-1.046-1.464S109.082,134.932,109.832,134.34Z" transform="translate(-70.787 -86.474)" fill="#ff4949" opacity="0.5"/>
    <path id="Caminho_112" data-name="Caminho 112" d="M112.656,129.882c-.223-.15.073-1.415.892-1.265s1.227,1.673.966,1.785c-.188.084-.4-1.245-1.1-1.21A.788.788,0,0,0,112.656,129.882Z" transform="translate(-73.336 -83.771)" fill="#4f3a31"/>
    <path id="Caminho_113" data-name="Caminho 113" d="M129.765,132.057c-.178-.157.1-1.565,1.011-1.537s1.394,1.82,1.2,1.841-.575-1.161-1.258-1.15S129.765,132.057,129.765,132.057Z" transform="translate(-84.494 -85.017)" fill="#4f3a31"/>
    <path id="Caminho_114" data-name="Caminho 114" d="M148.02,142c-.321,0-1.761.833-1.611,1.5,0,0,.349.509.7.213s-.188-.725-.188-.725Z" transform="translate(-95.362 -92.496)" fill="#d56731" opacity="0.7"/>
    <path id="Caminho_115" data-name="Caminho 115" d="M120.68,131.816a1.5,1.5,0,0,1-1.91-.7.314.314,0,0,1,.059-.164c.22-.349,1.018-.878,1.081-1.028s-.132-2.576-.132-2.576.209.024.607,1.673a9.988,9.988,0,0,1,.307,2.44v.237S120.788,131.76,120.68,131.816Z" transform="translate(-77.365 -82.953)" fill="url(#linear-gradient-30)"/>
    <path id="Caminho_116" data-name="Caminho 116" d="M120.68,138.551a1.5,1.5,0,0,1-1.91-.7.314.314,0,0,1,.059-.164,2.113,2.113,0,0,0,1.862.5v.237S120.788,138.5,120.68,138.551Z" transform="translate(-77.365 -89.689)" fill="#e56b44" opacity="0.2"/>
    <path id="Caminho_117" data-name="Caminho 117" d="M126.39,106.036c3.814,4.061-1.419,8.067-2.046,8.524a.934.934,0,0,0,.282-.383,2.165,2.165,0,0,0,.143-1.025.57.57,0,0,0-.017-.171c-.084-.7-.4-1.356-.83-1.489a.892.892,0,0,0-.5,0,2.182,2.182,0,0,0-.293.094,10.2,10.2,0,0,0-2.186,1.394,7.77,7.77,0,0,0,.551-3.4.61.61,0,0,0-.031-.237c-.3-1.785-1.67-2.517-2.949-3.009A3.138,3.138,0,0,1,117.04,105l-.1-.171c-.645-1.13-.9-2.44-1.147-2.6a.087.087,0,0,0-.059,0c-.038,0-.056.056-.059.139a9.937,9.937,0,0,1,.091,1.942.764.764,0,0,1-.056.143.349.349,0,0,1-.15.164h0a.188.188,0,0,1-.091.024h0c-.505-.07-.265-2.789-.638-3.27a.125.125,0,0,0-.174-.052h0c-.377.22-.816,2.161-.816,2.161a.324.324,0,0,1-.153,0l-.045-.017a.478.478,0,0,1-.143-.087,4.683,4.683,0,0,1-.8-1.991c-1.213.408-2.092,1.851-2.649,3.193a16.3,16.3,0,0,0-.826,2.576h0a9.656,9.656,0,0,1-.544-2.883v-.251a6.1,6.1,0,0,1,.1-1.046,5.2,5.2,0,0,1,2.507-3.082l.073-.042a1.776,1.776,0,0,1-1.635-2.3.307.307,0,0,1,.084-.108.265.265,0,0,1,.275,0,1.273,1.273,0,0,1,.15.08c.523.349,1.231,1.335,1.475,1.426.349.132,9.273-5.376,13.321,1.394a7.012,7.012,0,0,1,.516,4.881c.83-2.649,2.587-2.848,3.392-2.51a1.393,1.393,0,0,1,.178.091l.035.031c.324.279-.4.931-1.046,1.426a6.828,6.828,0,0,0-.9.624c.056-.035.467-.3.9-.624.307-.164.589-.251.669-.066.192.446-1.945,1.339-1.945,1.339s2.385-.146,2.646.377a.114.114,0,0,1,0,.021C129.649,106.465,126.39,106.036,126.39,106.036Z" transform="translate(-70.793 -63.156)" fill="url(#linear-gradient-31)"/>
    <path id="Caminho_118" data-name="Caminho 118" d="M138.824,114.545c3.814,4.061-1.419,8.067-2.046,8.524a.934.934,0,0,0,.282-.383c.383-.865,0-2.465-.7-2.684-.844-.268-2.974,1.485-2.974,1.485,1.635-4.609-.5-5.9-2.44-6.641s-2.332-3.87-2.726-4.117.394,2.092-.251,2.378a.188.188,0,0,1-.091.024,4.881,4.881,0,0,1,.349-3.11c.31,1.562,3,4.2,4.351,4.762s2.036,3.486,2.036,3.486c4.016.593,3.762-3.737,3.762-3.737.46-.634,2.608-.383,3.469-.115a.114.114,0,0,1,0,.021C142.083,114.974,138.824,114.545,138.824,114.545Z" transform="translate(-83.227 -71.665)" fill="#d63800" opacity="0.4"/>
    <path id="Caminho_119" data-name="Caminho 119" d="M123.513,109.319c-.377.22-.816,2.161-.816,2.161a.324.324,0,0,1-.153,0C121.917,109.719,122.816,109.2,123.513,109.319Z" transform="translate(-79.686 -71.197)" fill="#d63800" opacity="0.4"/>
    <path id="Caminho_120" data-name="Caminho 120" d="M113.38,108.763c-1.213.408-2.092,1.851-2.649,3.193a16.3,16.3,0,0,0-.826,2.576,5.827,5.827,0,0,1,.722-4.305C111.6,108.853,113.412,107.748,113.38,108.763Z" transform="translate(-71.508 -70.589)" fill="#d63800" opacity="0.4"/>
    <path id="Caminho_121" data-name="Caminho 121" d="M113.04,100.675a1.776,1.776,0,0,1-1.635-2.3.307.307,0,0,1,.084-.108,3.078,3.078,0,0,0,1.537,2.315C114.132,100.965,113.04,100.675,113.04,100.675Z" transform="translate(-72.507 -64.011)" fill="#d63800" opacity="0.4"/>
    <path id="Caminho_122" data-name="Caminho 122" d="M114.732,120.765c.492.206-.505-1.3-1.708-1.116a1.4,1.4,0,0,0-1.3,1.116,4.26,4.26,0,0,1,3.012,0Z" transform="translate(-72.773 -77.927)" fill="#c72f00"/>
    <path id="Caminho_123" data-name="Caminho 123" d="M132.738,123.568c-.038-.373,1.028-1.074,2.092-.5a1.708,1.708,0,0,1,.959,1.97,2.6,2.6,0,0,0-1.349-1.227C133.209,123.251,132.738,123.568,132.738,123.568Z" transform="translate(-86.463 -80.022)" fill="#c72f00"/>
    <path id="Caminho_124" data-name="Caminho 124" d="M127.68,104.03a3.423,3.423,0,0,1,1.394-.37l-.035-.031a1.4,1.4,0,0,0-.178-.091,3.747,3.747,0,0,0-1.321.4,3.113,3.113,0,0,0-1.659,2.44.652.652,0,0,0-.519-.254,4.8,4.8,0,0,0-.92-4.051,9.123,9.123,0,0,0-3.326-3.1c-2.482-1.265-5.132-.4-7.4,1.046h0l-.3.2a3.43,3.43,0,0,1-1.014.056,3.061,3.061,0,0,1-1.3-.216,1.926,1.926,0,0,1-.941-1.743,1.272,1.272,0,0,0-.15-.08,2.143,2.143,0,0,0,1.007,1.959,3.207,3.207,0,0,0,1.548.244h.568a22.42,22.42,0,0,0-2.684,2.273c-.669.655-1.241,1.394-1.848,2.092v.251c.523-.593,1.018-1.22,1.541-1.816a16.911,16.911,0,0,1,3.333-2.883.676.676,0,0,0,.349-.213,14.667,14.667,0,0,1,1.5-.826,6.426,6.426,0,0,1,6.115,0,9.3,9.3,0,0,1,3.343,3.6,4.6,4.6,0,0,1,.593,2.416,5.368,5.368,0,0,0-1.482-2.44,9.482,9.482,0,0,0-3.2-2.318,7.366,7.366,0,0,0-5.135-.464,3.549,3.549,0,0,0-2.05,3.138c-.038.3-.063.6-.073.9a.478.478,0,0,0,.143.087,6.742,6.742,0,0,1,.45-2.44c.75-1.785,2.789-1.949,4.455-1.68a9.852,9.852,0,0,1,2.789.889,7.781,7.781,0,0,1,1.454,1.018,10.482,10.482,0,0,1,1.656,1.68,3.563,3.563,0,0,1,.879,1.977,1.474,1.474,0,0,1-.031.349,2.067,2.067,0,0,0-.9-1.077c-.561-.408-1.168-.77-1.743-1.15a11.281,11.281,0,0,0-4.135-1.743c-1.1-.2-2.618-.146-2.981,1.136a7.362,7.362,0,0,0-.056,2.032v.192h0a.188.188,0,0,0,.091-.024h0v-.314c.052.056.1.1.157.15a.763.763,0,0,0,.056-.143,2.009,2.009,0,0,1-.206-.216h0c0-.38,0-.763.017-1.143a1.935,1.935,0,0,1,.108-.568.375.375,0,0,1,.059-.139,1.443,1.443,0,0,1,.924-.77,4.107,4.107,0,0,1,1.984,0,11.037,11.037,0,0,1,3.779,1.611c.516.328,1.018.676,1.537,1,.439.279,1.007.641,1.15,1.178-.08-.021-.167.028-.3.038-.512.042-1.028.073-1.541.112a18.557,18.557,0,0,1-3.016-.091c-.858-.073-1.7-.216-2.552-.349-.248-.038-.505-.077-.76-.132l.1.171h.035c.756.157,1.537.258,2.3.349a23.774,23.774,0,0,0,3.026.216c.481,0,.959-.045,1.436-.087l.819-.059c.1,0,.4-.08.46,0-.108.066-.216.143-.3.2-.188.115-.37.244-.547.373a8.688,8.688,0,0,0-1.994,2.168c-.272.394-.533.788-.809,1.175,0,.077.024.157.031.237.094-.129.181-.254.268-.383a18.884,18.884,0,0,1,1.628-2.228,6.138,6.138,0,0,1,2.039-1.464.785.785,0,0,0,.056.22,2.821,2.821,0,0,1,.112.854,5.271,5.271,0,0,1-.2,1.614,6.826,6.826,0,0,1-1.217,2.224,10.933,10.933,0,0,1-1.046,1.182,2.182,2.182,0,0,1,.293-.094,11.248,11.248,0,0,0,.812-.913,7.9,7.9,0,0,0,1.265-2.214,4.88,4.88,0,0,0,.251-1.52,5.862,5.862,0,0,0-.031-.7c0-.213-.126-.45-.139-.662a.265.265,0,0,1,.23.178.066.066,0,0,0,.1.031,5.365,5.365,0,0,1,1.046,2.28,5.02,5.02,0,0,1-.37,2.674,6.108,6.108,0,0,1-1.837,2.322.57.57,0,0,0,.017.171,6.624,6.624,0,0,0,1.959-2.44,4.79,4.79,0,0,0-.666-5.037.066.066,0,0,0,0-.024A2.945,2.945,0,0,1,127.68,104.03Z" transform="translate(-70.741 -63.991)" fill="#d63800" opacity="0.3"/>
    <path id="Caminho_125" data-name="Caminho 125" d="M121.387,144.67a2.7,2.7,0,0,1-.2.614,2.207,2.207,0,0,1-2.008,1.367,1.473,1.473,0,0,1-1.3-.9,4.037,4.037,0,0,1-.387-1.014A8.231,8.231,0,0,0,121.387,144.67Z" transform="translate(-76.531 -94.235)" fill="#994141"/>
    <path id="Caminho_126" data-name="Caminho 126" d="M121.387,144.67a2.7,2.7,0,0,1-.2.614c-.37.37-1.314.969-3.308.464a4.037,4.037,0,0,1-.387-1.014A8.231,8.231,0,0,0,121.387,144.67Z" transform="translate(-76.531 -94.235)" fill="#fff"/>
    <path id="Caminho_127" data-name="Caminho 127" d="M155.54,194.081c-.028,3.514-2.507,11.731-3.629,14.223,0,0-.248.99-.917,1.14,0,0,.349,2.318.045,2.6l-.021.017c-.268.15-.533-1.394-.631-2.015h0a.862.862,0,0,0-.024-.167c0,.066.021.178.035.31v.1a.627.627,0,0,0,0,.077c0,.042,0,.08,0,.122a.7.7,0,0,0,0,.08c.07.784.132,1.9-.077,1.942h0c-.178.021-.4-.743-.544-1.482-.024-.112-.045-.227-.066-.349a3.774,3.774,0,0,1-.261,1.778.136.136,0,0,1-.094.045c-.178,0-.275-.373-.328-.844v.028c-.035.234-.1.394-.206.4H148.8c-.446-.038-.6-3.089-.446-3.35s1.339-.593,1.673-1.046,1.046-5.839.892-9.709-.819-8.287-.819-8.287a26.875,26.875,0,0,1,3.939-2.555l.066.2a30.893,30.893,0,0,1,1.408,5.993v.171A5.1,5.1,0,0,1,155.54,194.081Z" transform="translate(-96.6 -121.9)" fill="url(#linear-gradient-32)"/>
    <path id="Caminho_128" data-name="Caminho 128" d="M151.391,190.423a19.324,19.324,0,0,1,.934,8.395,40.314,40.314,0,0,1-1.907,9.507s-1.5.547-1.764.7.254,2.175.258,3.1h-.021c-.446-.038-.6-3.089-.446-3.35s1.339-.593,1.673-1.046,1.046-5.839.892-9.709-.819-8.287-.819-8.287a26.874,26.874,0,0,1,3.939-2.555l.066.2C153.563,188.157,151.851,189.879,151.391,190.423Z" transform="translate(-96.658 -121.919)" fill="#e56b44" opacity="0.2"/>
    <path id="Caminho_129" data-name="Caminho 129" d="M167.709,205.545c-.282.23-.729.021-.729.021a.784.784,0,0,0,.422-.826.823.823,0,0,1,.268.052v.171A5.1,5.1,0,0,1,167.709,205.545Z" transform="translate(-108.768 -133.364)" fill="#e56b44" opacity="0.2"/>
    <path id="Caminho_130" data-name="Caminho 130" d="M154.921,253.5l-.021.017c-.268.15-.533-1.394-.631-2.015h0c-.031-.478,0-.7.115-.718A17.764,17.764,0,0,1,154.921,253.5Z" transform="translate(-100.481 -163.354)" fill="#e56b44" opacity="0.2"/>
    <path id="Caminho_131" data-name="Caminho 131" d="M153.074,254.13h0c-.178.021-.4-.743-.544-1.482.038-.9-.15-1.656,0-1.6A18.341,18.341,0,0,1,153.074,254.13Z" transform="translate(-99.318 -163.525)" fill="#e56b44" opacity="0.2"/>
    <path id="Caminho_132" data-name="Caminho 132" d="M150.827,254.259a.136.136,0,0,1-.094.045c-.178,0-.275-.373-.328-.844v.028a6.961,6.961,0,0,1,.059-2.175A19.28,19.28,0,0,1,150.827,254.259Z" transform="translate(-97.949 -163.695)" fill="#e56b44" opacity="0.2"/>
    <path id="Caminho_133" data-name="Caminho 133" d="M32.07,38.817c-.258-.439,1.394,1.872.7,2.367S31.676,40.1,32.345,40a3.939,3.939,0,0,0-.275-1.182Z" transform="translate(-20.845 -25.248)" fill="#d56731" opacity="0.7"/>
    <path id="Caminho_134" data-name="Caminho 134" d="M46.06,40.284c.125-.206,1.673-2.039,3.043-1.53s.784,3.005.575,3A8.047,8.047,0,0,1,46.06,40.284Z" transform="translate(-30.003 -25.185)" fill="#e57f5f" opacity="0.2"/>
    <path id="Caminho_135" data-name="Caminho 135" d="M41.689,46.568a.213.213,0,0,0-.2-.084,3.256,3.256,0,0,0,.129.739c2.276,3.138,2.116,5.655-.505,8.311-2.046,2.071-2.294,4.274-2.514,6.219a15.394,15.394,0,0,1-.349,2.144c-.181.7-.509,1.1-.976,1.189-.809.157-2.067-.634-2.991-1.883-1.314-1.774-3.371-5.553-3.392-5.578a.24.24,0,0,0-.077-.08c-.108-.07-.268-.171-.474-.293-1.447-.879-5.3-3.221-6.275-5.508-.924-2.134,0-5.229,1.844-6.882a4.881,4.881,0,0,1,.872-.645.223.223,0,0,0-.216-.39,5.2,5.2,0,0,0-.875.614c-2.039,1.743-3.043,5.139-2.039,7.46,1.046,2.416,4.846,4.727,6.467,5.71l.415.258a62.094,62.094,0,0,0,3.4,5.578,4.437,4.437,0,0,0,3.138,2.092,1.471,1.471,0,0,0,.286-.028c.45-.087,1.046-.418,1.325-1.513a15.517,15.517,0,0,0,.349-2.207c.223-1.963.453-4,2.388-5.954C44.314,52.934,44.394,50.064,41.689,46.568Z" transform="translate(-15.152 -28.53)" fill="url(#linear-gradient-33)"/>
    <path id="Caminho_136" data-name="Caminho 136" d="M60.559,118.769c-.056-1.283-.112-2.5-.213-3.57a32.523,32.523,0,0,0-.945-4.72q-.1-.415-.22-.837a98.883,98.883,0,0,0-3.6-10.769A12.738,12.738,0,0,1,56,97.584a8.084,8.084,0,0,0,.579-2.322.282.282,0,0,0-.268-.3A.293.293,0,0,0,56,95.22a7.523,7.523,0,0,1-.547,2.182c-.077.213-.157.432-.237.669a2.13,2.13,0,0,0-.349-.558c-.248-.223-.746-.593-1.325-1.021A19.7,19.7,0,0,1,50.753,94.2a.3.3,0,0,0-.4-.077.272.272,0,0,0-.08.383,19.542,19.542,0,0,0,2.9,2.44c.565.422,1.046.784,1.283.987a4.755,4.755,0,0,1,.5.994,10.309,10.309,0,0,0-.223,2.942c.1,2.032.485,5.337.892,8.367l.094.7c.293,2.134.589,4.068.795,5.229.063.38.132.847.213,1.394.066.446.139.938.223,1.464l.634.3c-.108-.666-.2-1.293-.282-1.844s-.15-1.014-.216-1.394c-.2-1.164-.5-3.075-.784-5.18-.035-.237-.066-.474-.1-.715-.408-3.026-.791-6.32-.892-8.339a11.3,11.3,0,0,1,.052-1.91c.485,1.231,1.116,2.988,1.816,5.142.349,1.046.9,2.824,1.412,4.713q.115.411.22.826a32.138,32.138,0,0,1,.938,4.651c.1,1.046.153,2.266.209,3.545.028.607.056,1.224.087,1.841l.6.373C60.626,120.258,60.6,119.5,60.559,118.769Z" transform="translate(-32.716 -61.279)" fill="url(#linear-gradient-34)"/>
    <path id="Caminho_137" data-name="Caminho 137" d="M66.39,44.358c0-.6.624-2.527,2.3-2.622,1.394-.077.46,2.269.46,2.269a18.317,18.317,0,0,1-2.761.4Z" transform="translate(-43.246 -27.185)" fill="#e57f5f" opacity="0.2"/>
    <path id="Caminho_138" data-name="Caminho 138" d="M49.679,44.462a2.29,2.29,0,0,1-.756.317,1.788,1.788,0,0,1-1.248-.22,2.982,2.982,0,0,1-.293-.192,4.445,4.445,0,0,1-1.321-1.377,2.9,2.9,0,0,1,1.869-.031C48.828,43.263,49.839,44.368,49.679,44.462Z" transform="translate(-30.003 -27.891)" fill="#fff"/>
    <path id="Caminho_139" data-name="Caminho 139" d="M32.887,43.649a.349.349,0,1,1-.349-.349A.349.349,0,0,1,32.887,43.649Z" transform="translate(-20.968 -28.204)" fill="#1f3d3f"/>
    <path id="Caminho_140" data-name="Caminho 140" d="M51.874,46.314a1.788,1.788,0,0,1-1.248-.22A.129.129,0,0,0,50.6,46a.735.735,0,0,1,1.443-.268A.659.659,0,0,1,51.874,46.314Z" transform="translate(-32.955 -29.427)" fill="#225668"/>
    <path id="Caminho_141" data-name="Caminho 141" d="M68.951,47.158a1.44,1.44,0,0,1-.791.216h-.45a3.138,3.138,0,0,1-1.21-.2s1.363-1.29,2.151-1.178a.634.634,0,0,1,.3,1.161Z" transform="translate(-43.317 -29.957)" fill="#fff"/>
    <path id="Caminho_142" data-name="Caminho 142" d="M71,47.312a.721.721,0,0,1-.021.174,1.44,1.44,0,0,1-.791.216h-.45a.739.739,0,0,1-.112-.39.7.7,0,1,1,1.374,0Z" transform="translate(-45.349 -30.285)" fill="#225668"/>
    <path id="Caminho_143" data-name="Caminho 143" d="M66.4,46.135c-.293-.213.645-1.44,1.841-1.712a.822.822,0,0,1,.882,1.311s.136-.931-.875-.7A5.368,5.368,0,0,0,66.4,46.135Z" transform="translate(-43.216 -28.913)" fill="#72594e"/>
    <path id="Caminho_144" data-name="Caminho 144" d="M49.679,43.412c.213-.185.073-1.464-1.143-2a1.941,1.941,0,0,0-2.475.526,2.6,2.6,0,0,1,2.137.206,5.623,5.623,0,0,1,1.482,1.269Z" transform="translate(-30.003 -26.838)" fill="#72594e"/>
    <path id="Caminho_145" data-name="Caminho 145" d="M128.248,185.6a2.266,2.266,0,0,1-.439,1.342h0a2.263,2.263,0,1,1-1.816-3.6h.2A2.256,2.256,0,0,1,128.248,185.6Z" transform="translate(-80.593 -119.424)" fill="#bfbfbf"/>
    <path id="Caminho_146" data-name="Caminho 146" d="M129.1,188.107a1.311,1.311,0,1,1-1.691-1.252,1.4,1.4,0,0,1,.383-.056A1.307,1.307,0,0,1,129.1,188.107Z" transform="translate(-82.387 -121.678)" fill="#999"/>
    <path id="Caminho_147" data-name="Caminho 147" d="M132.411,186.971c.952-1.471-.551-3.078-1.621-3.591a2.259,2.259,0,0,1,1.621,3.591Z" transform="translate(-85.195 -119.45)" fill="#bfbfbf" opacity="0.5"/>
    <path id="Caminho_148" data-name="Caminho 148" d="M128.924,188.846a1.307,1.307,0,1,1-1.527-1.886,1.133,1.133,0,0,0,0,1.614A1.8,1.8,0,0,0,128.924,188.846Z" transform="translate(-82.384 -121.782)" fill="#999" opacity="0.4"/>
    <path id="Caminho_149" data-name="Caminho 149" d="M110.054,188.064c.1.021.418.07.781.122h0c.537.08,1.192.174,1.454.192.119,0,.181.063.178.129,0,.209-.669.561-2.332.286a5.773,5.773,0,0,1,.614.16h0a2.688,2.688,0,0,1,.809.349h0c.084.073.091.146-.038.209a5.938,5.938,0,0,1-6.09-1.886,20.385,20.385,0,0,1-3.385-.722l-.2-.931-.39-1.813a29.334,29.334,0,0,0,3.235,1.339,33.749,33.749,0,0,1,4.616-1.189c1.3-.125,1.876-.119,1.928.181a.3.3,0,0,1,0,.08c-.038.376-1.523.376-1.97.823a.2.2,0,0,0-.066.188h0c.1.394,1.537.795,2.594.885a1.262,1.262,0,0,1,.659.2h0c.23.2-.049.457-1.07.429h0a9.645,9.645,0,0,1-1.374-.153,18.539,18.539,0,0,0,1.959.411c.659.08.763.174.593.37a1.044,1.044,0,0,1-.108.112A3.5,3.5,0,0,1,110.054,188.064Z" transform="translate(-66.083 -119.959)" fill="url(#linear-gradient-35)"/>
    <path id="Caminho_150" data-name="Caminho 150" d="M112.278,192.868a5.938,5.938,0,0,1-6.09-1.886,20.386,20.386,0,0,1-3.385-.722l-.2-.931a10.5,10.5,0,0,0,3.486.969s0,.673,2.283,1.586a8.417,8.417,0,0,0,3.957.774h0C112.4,192.732,112.407,192.806,112.278,192.868Z" transform="translate(-66.832 -123.326)" fill="#e56b44" opacity="0.2"/>
    <path id="Caminho_151" data-name="Caminho 151" d="M125.113,185.08a.3.3,0,0,1,0,.08c-.038.376-1.523.376-1.97.823a.2.2,0,0,0-.066.188c-.2-.042-.314-.126-.328-.223C122.718,185.728,124.105,185.307,125.113,185.08Z" transform="translate(-79.957 -120.558)" fill="#e56b44" opacity="0.2"/>
    <path id="Caminho_152" data-name="Caminho 152" d="M126.145,190.922h0a5.19,5.19,0,0,1-1.743-.432c-.39-.227-.314-.45-.314-.45a5.128,5.128,0,0,0,2.266.446,6.744,6.744,0,0,1,.847,0h0C127.435,190.688,127.156,190.95,126.145,190.922Z" transform="translate(-80.826 -123.789)" fill="#e56b44" opacity="0.2"/>
    <path id="Caminho_153" data-name="Caminho 153" d="M127.308,193.947a1.044,1.044,0,0,1-.108.112,3.53,3.53,0,0,1-2.405.234c.1.021.418.07.781.122a5.77,5.77,0,0,1-.819-.126,1.3,1.3,0,0,1-.676-.568,5.031,5.031,0,0,0,2.015.258C126.559,193.954,127.012,193.936,127.308,193.947Z" transform="translate(-80.824 -126.186)" fill="#e56b44" opacity="0.2"/>
    <path id="Caminho_154" data-name="Caminho 154" d="M127.456,196.448c0,.209-.669.561-2.332.286a5.777,5.777,0,0,1,.614.16,4.61,4.61,0,0,1-.833-.174c-.519-.153-.45-.37-.45-.37a7.113,7.113,0,0,0,2.043.1C126.877,196.465,127.215,196.451,127.456,196.448Z" transform="translate(-81.066 -127.899)" fill="#e56b44" opacity="0.2"/>
  </g>
</svg>
