<svg xmlns="http://www.w3.org/2000/svg" width="68.634" height="54.204" viewBox="0 0 68.634 54.204">
  <g id="Grupo_9" data-name="Grupo 9" transform="translate(-37.726 -137.851)">
    <g id="Grupo_7" data-name="Grupo 7">
      <g id="Grupo_6" data-name="Grupo 6">
        <path id="Caminho_174" data-name="Caminho 174" d="M87.168,137.851c-8.353,0-15.126,5.968-15.126,11.681,0-5.63-6.772-11.681-15.126-11.681A15.167,15.167,0,0,0,41.79,153.063c0,22.521,30.252,38.992,30.252,38.992s30.252-16.471,30.252-38.992A15.167,15.167,0,0,0,87.168,137.851Z" fill="#f75f3c"/>
        <path id="Caminho_175" data-name="Caminho 175" d="M87.168,137.851c-8.353,0-15.126,5.968-15.126,11.681h7.5l-7.5,5.727v36.8s30.252-16.471,30.252-38.992A15.167,15.167,0,0,0,87.168,137.851Z" fill="#c93218"/>
        <path id="Caminho_176" data-name="Caminho 176" d="M56.916,137.851a15.137,15.137,0,0,0-14.7,11.681H72.042C72.042,143.9,65.27,137.851,56.916,137.851Z" fill="#ffdfdc" style="mix-blend-mode: soft-light;isolation: isolate"/>
        <path id="Caminho_177" data-name="Caminho 177" d="M72.045,187.7c-6.227-3.832-26.5-17.618-26.5-34.637A11.431,11.431,0,0,1,56.916,141.6c6.6,0,11.374,4.737,11.374,7.93h7.5c0-3.591,5.073-7.93,11.374-7.93a11.431,11.431,0,0,1,11.374,11.461C98.542,170.127,78.273,183.878,72.045,187.7Z" fill="#f75f3c"/>
      </g>
      <path id="Caminho_178" data-name="Caminho 178" d="M102.294,153.063a15.168,15.168,0,0,0-15.126-15.212c-8.353,0-15.126,5.968-15.126,11.682v42.522S102.294,175.584,102.294,153.063Z" fill="#e2ccbc" style="mix-blend-mode: multiply;isolation: isolate"/>
    </g>
    <g id="Grupo_8" data-name="Grupo 8">
      <path id="Caminho_179" data-name="Caminho 179" d="M75.039,179.726l-5.507-10.015-4.875,9.748-5.515-12.865L54.6,177.2H37.726v-3.283H52.433l6.71-15.658,5.744,13.4,4.507-9.014,4.811,8.747,7.651-24.482,6.565,27.007h17.938V177.2H85.84l-4.381-18.019Z" fill="#ffd8b8"/>
      <path id="Caminho_180" data-name="Caminho 180" d="M54.6,177.2l4.545-10.606,5.515,12.865,4.875-9.748,5.507,10.015,6.42-20.544L85.84,177.2h20.52v-1.642H87.13l-5.473-22.513-7.035,22.513-5.16-9.38-4.689,9.38-5.63-13.133-5.627,13.133H37.726V177.2Z" fill="#e2ccbc" style="mix-blend-mode: multiply;isolation: isolate"/>
    </g>
  </g>
</svg>
