<svg xmlns="http://www.w3.org/2000/svg" width="52.116" height="60.352" viewBox="0 0 52.116 60.352">
  <g id="Grupo_5" data-name="Grupo 5" transform="translate(-140.153 -333.58)">
    <path id="Caminho_155" data-name="Caminho 155" d="M163.3,396.049c-9.738,0-19.155-8.761-22.506-21.36-1.122-4.221-1.487-14.247,5.17-21.969,2.777-3.22,6-4.965,9.58-5.185,6.266-.389,11.277,4.085,11.487,4.276l-1.776,1.96c-.042-.038-4.411-3.925-9.567-3.595a11.1,11.1,0,0,0-7.721,4.271c-7.418,8.605-4.646,19.454-4.617,19.562,3.263,12.269,12.635,20.551,21.816,19.265,12.939-1.813,14.672-17.34,14.739-18l2.631.264c-.018.182-2,18.252-17,20.356A16.109,16.109,0,0,1,163.3,396.049Z" transform="translate(0 -2.117)" fill="#c93218"/>
    <path id="Caminho_156" data-name="Caminho 156" d="M181.778,375.961h0l-1.316-.132c-.068.66-1.8,16.187-14.739,18-9.181,1.286-18.552-7-21.816-19.265-.029-.108-2.8-10.957,4.617-19.562a11.1,11.1,0,0,1,7.721-4.271c5.156-.33,9.525,3.557,9.567,3.595l.888-.98s-10.381-9.411-19.178.793c-6.613,7.671-5.763,17.492-4.893,20.764,3.306,12.433,13.041,21.671,23.277,20.236C180.058,393.155,181.778,375.961,181.778,375.961Z" transform="translate(-0.558 -2.672)" fill="#f75f3c"/>
    <g id="Grupo_2" data-name="Grupo 2" transform="translate(170.424 333.58)">
      <path id="Caminho_157" data-name="Caminho 157" d="M201.848,351.942l1.678-.784-6.144-13.122c-1.685-3.6-5.506-4.881-9.291-3.108l.784,1.677c2.193-1.026,5.3-1.062,6.832,2.216Z" transform="translate(-184.591 -333.745)" fill="#a3978e"/>
      <path id="Caminho_158" data-name="Caminho 158" d="M196.709,338.815l6.142,13.12-.839.393-6.141-13.121c-1.535-3.278-4.639-3.242-6.832-2.216l-.392-.839C191.722,334.713,195.11,335.4,196.709,338.815Z" transform="translate(-184.755 -334.131)" fill="#635952"/>
      <path id="Caminho_159" data-name="Caminho 159" d="M184.389,338.437l-1.267-2.708,3.37-2.149,1.706,3.645Z" transform="translate(-183.122 -333.58)" fill="#efb078"/>
      <path id="Caminho_160" data-name="Caminho 160" d="M184.021,337.848l3.591-1.68.852,1.822-3.809,1.212Z" transform="translate(-183.388 -334.345)" fill="#f7d1b2" style="mix-blend-mode: multiply;isolation: isolate"/>
    </g>
    <g id="Grupo_3" data-name="Grupo 3" transform="translate(173.333 333.68)">
      <path id="Caminho_161" data-name="Caminho 161" d="M188.929,352.084l-1.678-.786,6.144-13.121c1.686-3.6,5.508-4.881,9.292-3.109l-.785,1.677c-2.193-1.026-5.3-1.062-6.831,2.217Z" transform="translate(-187.251 -333.886)" fill="#a3978e"/>
      <path id="Caminho_162" data-name="Caminho 162" d="M194.584,338.955l-6.142,13.122.839.393,6.142-13.121c1.534-3.279,4.638-3.243,6.831-2.217l.392-.839C199.572,334.854,196.184,335.54,194.584,338.955Z" transform="translate(-187.603 -334.272)" fill="#635952"/>
      <path id="Caminho_163" data-name="Caminho 163" d="M210.734,338.578,212,335.87l-3.37-2.149-1.706,3.645Z" transform="translate(-193.065 -333.722)" fill="#efb078"/>
      <path id="Caminho_164" data-name="Caminho 164" d="M211.368,337.989l-3.59-1.68-.853,1.822,3.809,1.211Z" transform="translate(-193.065 -334.486)" fill="#f7d1b2" style="mix-blend-mode: multiply;isolation: isolate"/>
    </g>
    <path id="Caminho_165" data-name="Caminho 165" d="M194.648,373.847c-5.268,0-9.555-3.575-9.555-7.969h1.058c0,3.811,3.813,6.911,8.5,6.911s8.5-3.1,8.5-6.911H204.2C204.2,370.272,199.918,373.847,194.648,373.847Z" transform="translate(-13.281 -8.641)" fill="#635952"/>
    <path id="Caminho_166" data-name="Caminho 166" d="M194.87,373.317c4.986,0,9.028-3.33,9.028-7.439h-.529c0,3.811-3.812,6.911-8.5,6.911s-8.5-3.1-8.5-6.911h-.528C185.845,369.987,189.886,373.317,194.87,373.317Z" transform="translate(-13.503 -8.651)" fill="#a3978e"/>
    <path id="Caminho_167" data-name="Caminho 167" d="M194.153,378.643c-5.144,0-9.539-6.965-10.688-15.422l-.047-.349,3.135-6.647,2.154,1.015-2.834,6.006c1.034,6.951,4.486,11.959,8.281,11.959s7.248-5.007,8.283-11.959L199.6,357.24l2.153-1.015,3.136,6.647-.046.349C203.693,371.678,199.3,378.643,194.153,378.643Z" transform="translate(-12.785 -5.804)" fill="#c93218"/>
    <path id="Caminho_168" data-name="Caminho 168" d="M194.667,376.607c4.609,0,8.471-5.682,9.51-13.333l-2.985-6.329-1.076.508,2.834,6.006c-1.034,6.951-4.486,11.959-8.283,11.959s-7.247-5.007-8.281-11.959l2.834-6.006-1.078-.508-2.984,6.329C186.2,370.925,190.06,376.607,194.667,376.607Z" transform="translate(-13.3 -6.054)" fill="#f75f3c"/>
    <rect id="Ret창ngulo_7" data-name="Ret창ngulo 7" width="0.794" height="3.174" transform="translate(173.233 350.299) rotate(-64.94)" fill="#c93218"/>
    <rect id="Ret창ngulo_8" data-name="Ret창ngulo 8" width="3.174" height="0.794" transform="matrix(0.906, -0.423, 0.423, 0.906, 186.326, 350.924)" fill="#c93218"/>
    <g id="Grupo_4" data-name="Grupo 4" transform="translate(178.865 368.883)">
      <path id="Caminho_169" data-name="Caminho 169" d="M195.731,386.683h3.616l.626-4.794H195.1Z" transform="translate(-195.104 -381.889)" fill="#a3978e"/>
      <path id="Caminho_170" data-name="Caminho 170" d="M198.56,386.683h1.808l.626-4.794H198.56Z" transform="translate(-196.126 -381.889)" fill="#635952"/>
    </g>
    <path id="Caminho_171" data-name="Caminho 171" d="M179.889,352.986a4.863,4.863,0,1,1-4.864-4.863A4.864,4.864,0,0,1,179.889,352.986Z" transform="translate(-8.868 -3.876)" fill="#635952"/>
    <path id="Caminho_172" data-name="Caminho 172" d="M175.469,357.236a3.805,3.805,0,1,1,3.806-3.806A3.81,3.81,0,0,1,175.469,357.236Z" transform="translate(-9.312 -4.296)" fill="#efb078"/>
    <path id="Caminho_173" data-name="Caminho 173" d="M176.448,355.878a1.468,1.468,0,1,1,1.469-1.468A1.47,1.47,0,0,1,176.448,355.878Z" transform="translate(-10.292 -5.229)" fill="#f7d1b2" style="mix-blend-mode: multiply;isolation: isolate"/>
  </g>
</svg>
