<svg xmlns="http://www.w3.org/2000/svg" width="68.478" height="68.478" viewBox="0 0 68.478 68.478">
  <g id="Grupo_15" data-name="Grupo 15" transform="translate(-140.39 -32.582)">
    <g id="Grupo_12" data-name="Grupo 12">
      <path id="Caminho_189" data-name="Caminho 189" d="M208.868,66.821A34.239,34.239,0,1,1,174.63,32.582,34.238,34.238,0,0,1,208.868,66.821Z" fill="#52ccc6"/>
      <path id="Caminho_190" data-name="Caminho 190" d="M208.868,66.821A34.239,34.239,0,0,0,174.63,32.582V101.06A34.238,34.238,0,0,0,208.868,66.821Z" fill="#e2ccbc" style="mix-blend-mode: multiply;isolation: isolate"/>
    </g>
    <g id="Grupo_14" data-name="Grupo 14">
      <g id="Grupo_13" data-name="Grupo 13">
        <path id="Caminho_191" data-name="Caminho 191" d="M190.447,46.524a11.883,11.883,0,0,0-9.474-3.646c-3.548.14-4.163,1.413-6.343,1.413s-2.406-1.1-5.586-1.365a12.1,12.1,0,0,0-10.234,3.6,10.186,10.186,0,0,0-2.588,7.185c0,7.6,3.661,14.341,5.439,18.941s1.047,19.477,5.332,19.477S171.073,81,171.7,75.86s2.93-5.243,2.93-5.243,2.3.107,2.928,5.243.417,16.267,4.705,16.267,3.554-14.874,5.333-19.477,5.439-11.342,5.439-18.941A10.181,10.181,0,0,0,190.447,46.524Z" fill="#ffe2cc"/>
        <path id="Caminho_192" data-name="Caminho 192" d="M161.153,48.717a8.434,8.434,0,0,1,6.513-2.64c.359,0,.732.016,1.106.048a6.2,6.2,0,0,1,2.265.575,8.4,8.4,0,0,0,3.593.8,9.119,9.119,0,0,0,3.586-.782,7.568,7.568,0,0,1,2.882-.635c.163-.006.326-.009.492-.009a8.428,8.428,0,0,1,6.513,2.641,7.039,7.039,0,0,1,1.72,4.991c0,5.468-2.2,10.626-3.972,14.771-.455,1.065-.883,2.069-1.249,3.013-.781,2.021-1.1,4.989-1.474,8.428a71.278,71.278,0,0,1-1.059,7.329v4.861c.065.006.127.016.194.016,4.29,0,3.554-14.874,5.333-19.477s5.439-11.342,5.439-18.941a10.181,10.181,0,0,0-2.588-7.185,11.883,11.883,0,0,0-9.474-3.646c-3.548.14-4.163,1.413-6.343,1.413s-2.406-1.1-5.586-1.365a12.1,12.1,0,0,0-10.234,3.6,10.186,10.186,0,0,0-2.588,7.185h3.211A7.048,7.048,0,0,1,161.153,48.717Z" fill="#e2ccbc" style="mix-blend-mode: multiply;isolation: isolate"/>
        <path id="Caminho_193" data-name="Caminho 193" d="M174.628,44.291c-2.182,0-2.4-1.1-5.584-1.365a12.1,12.1,0,0,0-10.234,3.6,10.186,10.186,0,0,0-2.588,7.185h3.211a7.048,7.048,0,0,1,1.72-4.992,8.434,8.434,0,0,1,6.513-2.64c.359,0,.732.016,1.106.048a6.2,6.2,0,0,1,2.265.575,8.4,8.4,0,0,0,3.591.8Z" fill="#fff"/>
      </g>
      <path id="Caminho_194" data-name="Caminho 194" d="M180.973,42.878c-3.548.14-4.163,1.413-6.343,1.413h0V70.617h0s2.3.107,2.928,5.243.417,16.267,4.705,16.267,3.554-14.874,5.333-19.477,5.439-11.342,5.439-18.941a10.181,10.181,0,0,0-2.588-7.185A11.883,11.883,0,0,0,180.973,42.878Z" fill="#eae4df" style="mix-blend-mode: multiply;isolation: isolate"/>
    </g>
  </g>
</svg>
