<svg xmlns="http://www.w3.org/2000/svg" width="71.296" height="73.001" viewBox="0 0 71.296 73.001">
  <g id="Grupo_21" data-name="Grupo 21" transform="translate(-237.113 -342.559)">
    <g id="Grupo_20" data-name="Grupo 20">
      <path id="Caminho_195" data-name="Caminho 195" d="M275.074,369.647V342.559h-4.625v27.088l-13.018,13.2,3.292,3.247,12.037-12.2,12.038,12.2,3.292-3.247Z" fill="#f75f3c"/>
      <g id="Grupo_18" data-name="Grupo 18">
        <g id="Grupo_16" data-name="Grupo 16">
          <path id="Caminho_196" data-name="Caminho 196" d="M268.669,368.566c.437,6.692.551,21.715.3,31.895-.086,3.594-2.527,11.368-9.849,14.066-3.059,1.127-18.4,2.987-21.1-4.914-4.4-12.889,8.407-36.262,11.272-40.174,6.65-9.082,13.617-8.36,17.009-6.2C268.47,364.62,268.582,367.247,268.669,368.566Z" fill="#e22379"/>
          <path id="Caminho_197" data-name="Caminho 197" d="M264.269,362.3c-3.73-1.183-9.459-.393-14.972,7.136-2.865,3.912-15.674,27.285-11.272,40.174.071.2.153.4.24.591,5.633,2.253,14.053,1.08,16.235.276,7.322-2.7,9.763-10.471,9.849-14.065C264.545,388.3,264.514,371.987,264.269,362.3Z" fill="#f45b95"/>
        </g>
        <g id="Grupo_17" data-name="Grupo 17">
          <path id="Caminho_198" data-name="Caminho 198" d="M276.853,368.566c-.436,6.692-.551,21.715-.3,31.895.087,3.594,2.527,11.368,9.849,14.066,3.06,1.127,18.4,2.987,21.1-4.914,4.4-12.889-8.406-36.262-11.271-40.174-6.651-9.082-13.619-8.36-17.01-6.2C277.053,364.62,276.938,367.247,276.853,368.566Z" fill="#e22379"/>
          <path id="Caminho_199" data-name="Caminho 199" d="M281.252,362.3c3.73-1.183,9.461-.393,14.974,7.136,2.865,3.912,15.672,27.285,11.271,40.174-.069.2-.153.4-.24.591-5.634,2.253-14.053,1.08-16.235.276-7.321-2.7-9.761-10.471-9.849-14.065C280.977,388.3,281.01,371.987,281.252,362.3Z" fill="#f45b95"/>
        </g>
      </g>
      <g id="Grupo_19" data-name="Grupo 19">
        <rect id="Retângulo_33" data-name="Retângulo 33" width="5.396" height="0.866" transform="translate(270.063 343.811)" fill="#efb078"/>
        <rect id="Retângulo_34" data-name="Retângulo 34" width="5.396" height="0.867" transform="translate(270.063 345.719)" fill="#efb078"/>
        <rect id="Retângulo_35" data-name="Retângulo 35" width="5.396" height="0.867" transform="translate(270.063 347.626)" fill="#efb078"/>
        <rect id="Retângulo_36" data-name="Retângulo 36" width="5.396" height="0.867" transform="translate(270.063 349.534)" fill="#efb078"/>
        <rect id="Retângulo_37" data-name="Retângulo 37" width="5.396" height="0.867" transform="translate(270.063 351.441)" fill="#efb078"/>
        <rect id="Retângulo_38" data-name="Retângulo 38" width="5.396" height="0.866" transform="translate(270.063 353.35)" fill="#efb078"/>
        <rect id="Retângulo_39" data-name="Retângulo 39" width="5.396" height="0.866" transform="translate(270.063 355.257)" fill="#efb078"/>
        <rect id="Retângulo_40" data-name="Retângulo 40" width="5.396" height="0.867" transform="translate(270.063 357.164)" fill="#efb078"/>
        <rect id="Retângulo_41" data-name="Retângulo 41" width="5.396" height="0.866" transform="translate(270.063 359.072)" fill="#efb078"/>
        <rect id="Retângulo_42" data-name="Retângulo 42" width="5.396" height="0.867" transform="translate(270.063 360.979)" fill="#efb078"/>
        <rect id="Retângulo_43" data-name="Retângulo 43" width="5.396" height="0.867" transform="translate(270.063 362.887)" fill="#efb078"/>
      </g>
    </g>
    <path id="Caminho_200" data-name="Caminho 200" d="M295.647,368.677c-.061-.079-.123-.154-.184-.231-.133-.166-.265-.33-.4-.487-.071-.085-.141-.167-.212-.249-.126-.149-.253-.293-.38-.434-.07-.077-.138-.155-.207-.229-.138-.15-.276-.293-.413-.435-.056-.058-.112-.118-.168-.174q-.289-.292-.58-.563c-.019-.02-.039-.037-.059-.056-.172-.16-.344-.313-.516-.462-.064-.056-.128-.108-.192-.162-.128-.109-.258-.216-.387-.318-.07-.057-.141-.111-.213-.168-.123-.094-.247-.187-.368-.276l-.211-.154c-.133-.094-.266-.183-.4-.271-.056-.037-.114-.077-.17-.113-.185-.12-.37-.235-.555-.341-.046-.029-.092-.052-.138-.078-.139-.08-.28-.158-.419-.232l-.216-.109c-.112-.057-.224-.113-.335-.164l-.235-.108c-.106-.047-.212-.091-.317-.135-.078-.032-.155-.065-.234-.1-.109-.042-.216-.082-.324-.12l-.215-.078q-.25-.084-.5-.154c-.081-.024-.161-.043-.242-.065s-.182-.049-.274-.069-.18-.042-.27-.06-.157-.032-.236-.048-.187-.034-.279-.049l-.213-.031c-.1-.014-.194-.027-.29-.037-.057-.007-.113-.011-.169-.017a10.07,10.07,0,0,0-1.087-.045h-.1c-.112,0-.223.009-.334.015l-.106.006c-.113.007-.225.017-.335.027l-.075.009a9.1,9.1,0,0,0-3.875,1.324c-2.163,1.379-2.278,4.006-2.363,5.325-.051.8-.1,1.724-.142,2.741l-1.637-1.66v-5.893h.384v-.867h-.384v-1.04h.384v-.868h-.384v-1.04h.384v-.867h-.384v-1.041h.384v-.867h-.384v-1.041h.384v-.866h-.384v-1.041h.384v-.866h-.384v-1.041h.384v-.868h-.384V350.4h.384v-.867h-.384v-1.041h.384v-.867h-.384v-1.04h.384v-.867h-.384v-1.041h.384v-.867h-.384v-1.252h-2.312v31.33l3.761,3.812c-.143,7.162-.137,16.022.026,22.76.087,3.594,2.527,11.368,9.849,14.066,3.06,1.127,18.4,2.987,21.1-4.914,4.4-12.889-8.406-36.262-11.271-40.174C296.033,369.176,295.841,368.924,295.647,368.677Z" fill="#e0dddc" style="mix-blend-mode: multiply;isolation: isolate"/>
  </g>
</svg>
