<svg xmlns="http://www.w3.org/2000/svg" width="64.307" height="63.535" viewBox="0 0 64.307 63.535">
  <g id="Grupo_24" data-name="Grupo 24" transform="translate(-42.32 -28.786)">
    <g id="Grupo_23" data-name="Grupo 23" transform="translate(42.32 28.786)">
      <path id="Caminho_201" data-name="Caminho 201" d="M69.237,80.8,95.919,54.119a3.58,3.58,0,0,0,0-5.049L90.59,43.74a3.58,3.58,0,0,0-5.049,0L58.859,70.422Z" transform="translate(-45.045 -31.079)" fill="#d1c5bd"/>
      <path id="Caminho_202" data-name="Caminho 202" d="M68.561,80.29,94.4,54.45a3.58,3.58,0,0,0,0-5.049l-3.646-3.646a3.583,3.583,0,0,0-5.05,0l-25.84,25.84Z" transform="translate(-45.211 -31.411)" fill="#f7f4f2"/>
      <path id="Caminho_203" data-name="Caminho 203" d="M87.327,64.619,97.494,54.45a3.58,3.58,0,0,0,0-5.049l-3.646-3.646a3.583,3.583,0,0,0-5.05,0L78.631,55.922Z" transform="translate(-48.304 -31.411)" fill="#f75f3c"/>
      <path id="Caminho_204" data-name="Caminho 204" d="M114.346,29.251l-13,13,.772.772,14.239-14.24Z" transform="translate(-52.046 -28.786)" fill="#635952"/>
      <path id="Caminho_205" data-name="Caminho 205" d="M100.726,43.623l-2.559,2.193,2.307,2.307,2.192-2.559Z" transform="translate(-51.523 -31.231)" fill="#d1c5bd"/>
      <rect id="Retângulo_44" data-name="Retângulo 44" width="39.866" height="8.43" transform="translate(3.156 54.42) rotate(-45)" fill="#d1c5bd"/>
      <rect id="Retângulo_45" data-name="Retângulo 45" width="3.123" height="14.678" transform="matrix(0.707, -0.707, 0.707, 0.707, 0, 53.156)" fill="#d1c5bd"/>
      <rect id="Retângulo_46" data-name="Retângulo 46" width="3.124" height="12.297" transform="translate(29.031 25.809) rotate(-44.998)" fill="#a3978e"/>
      <g id="Grupo_22" data-name="Grupo 22" transform="translate(18.697 15.038)">
        <rect id="Retângulo_47" data-name="Retângulo 47" width="0.562" height="6.942" transform="translate(24.496 0.397) rotate(-44.995)" fill="#635952"/>
        <path id="Caminho_206" data-name="Caminho 206" d="M97.217,52.718l-3.532-3.531.4-.4,3.53,3.53Z" transform="translate(-69.481 -47.12)" fill="#635952"/>
        <rect id="Retângulo_48" data-name="Retângulo 48" width="0.562" height="4.993" transform="translate(23.225 3.047) rotate(-45)" fill="#635952"/>
        <rect id="Retângulo_49" data-name="Retângulo 49" width="0.562" height="4.993" transform="translate(22.245 4.026) rotate(-45)" fill="#635952"/>
        <rect id="Retângulo_50" data-name="Retângulo 50" width="0.563" height="4.993" transform="translate(21.265 5.007) rotate(-45.001)" fill="#635952"/>
        <rect id="Retângulo_51" data-name="Retângulo 51" width="0.562" height="6.942" transform="translate(19.597 5.297) rotate(-44.996)" fill="#635952"/>
        <rect id="Retângulo_52" data-name="Retângulo 52" width="0.563" height="4.994" transform="translate(19.305 6.966) rotate(-45.007)" fill="#635952"/>
        <rect id="Retângulo_53" data-name="Retângulo 53" width="0.563" height="4.993" transform="translate(18.326 7.946) rotate(-44.999)" fill="#635952"/>
        <rect id="Retângulo_54" data-name="Retângulo 54" width="0.563" height="4.993" transform="translate(17.346 8.926) rotate(-45)" fill="#635952"/>
        <rect id="Retângulo_55" data-name="Retângulo 55" width="0.562" height="4.994" transform="translate(16.366 9.905) rotate(-45)" fill="#635952"/>
        <rect id="Retângulo_56" data-name="Retângulo 56" width="0.562" height="6.941" transform="translate(14.698 10.196) rotate(-45)" fill="#635952"/>
        <path id="Caminho_207" data-name="Caminho 207" d="M85.485,64.45l-3.531-3.531.4-.4,3.53,3.53Z" transform="translate(-67.548 -49.054)" fill="#635952"/>
        <rect id="Retângulo_57" data-name="Retângulo 57" width="0.562" height="4.994" transform="matrix(0.707, -0.707, 0.707, 0.707, 13.427, 12.844)" fill="#635952"/>
        <rect id="Retângulo_58" data-name="Retângulo 58" width="0.563" height="4.993" transform="translate(12.446 13.825) rotate(-45.001)" fill="#635952"/>
        <rect id="Retângulo_59" data-name="Retângulo 59" width="0.562" height="4.993" transform="translate(11.468 14.805) rotate(-44.994)" fill="#635952"/>
        <rect id="Retângulo_60" data-name="Retângulo 60" width="0.563" height="6.941" transform="translate(9.798 15.096) rotate(-45)" fill="#635952"/>
        <rect id="Retângulo_61" data-name="Retângulo 61" width="0.563" height="4.993" transform="translate(9.507 16.764) rotate(-45)" fill="#635952"/>
        <rect id="Retângulo_62" data-name="Retângulo 62" width="0.563" height="4.994" transform="translate(8.527 17.744) rotate(-45)" fill="#635952"/>
        <rect id="Retângulo_63" data-name="Retângulo 63" width="0.563" height="4.993" transform="translate(7.548 18.724) rotate(-45)" fill="#635952"/>
        <rect id="Retângulo_64" data-name="Retângulo 64" width="0.563" height="4.993" transform="matrix(0.707, -0.707, 0.707, 0.707, 6.568, 19.704)" fill="#635952"/>
        <rect id="Retângulo_65" data-name="Retângulo 65" width="0.562" height="6.942" transform="translate(4.899 19.994) rotate(-45)" fill="#635952"/>
        <rect id="Retângulo_66" data-name="Retângulo 66" width="0.562" height="4.993" transform="matrix(0.707, -0.707, 0.707, 0.707, 4.609, 21.663)" fill="#635952"/>
        <path id="Caminho_208" data-name="Caminho 208" d="M72.58,77.355l-3.531-3.531.4-.4,3.53,3.53Z" transform="translate(-65.421 -51.18)" fill="#635952"/>
        <rect id="Retângulo_67" data-name="Retângulo 67" width="0.562" height="4.993" transform="translate(2.649 23.623) rotate(-44.999)" fill="#635952"/>
        <rect id="Retângulo_68" data-name="Retângulo 68" width="0.562" height="4.993" transform="translate(1.669 24.603) rotate(-44.993)" fill="#635952"/>
        <rect id="Retângulo_69" data-name="Retângulo 69" width="0.563" height="6.941" transform="translate(0 24.894) rotate(-45.004)" fill="#635952"/>
      </g>
      <rect id="Retângulo_70" data-name="Retângulo 70" width="3.818" height="17.947" transform="translate(10.765 40.08) rotate(-44.998)" fill="#d1c5bd"/>
      <rect id="Retângulo_71" data-name="Retângulo 71" width="1.232" height="17.948" transform="translate(10.762 40.083) rotate(-45.027)" fill="#a3978e"/>
    </g>
    <path id="Caminho_209" data-name="Caminho 209" d="M94.217,51.826a3.58,3.58,0,0,0,0-5.049l-1.543-1.543,1.812-2.116-.585-.584L107.65,28.786l-1,.233L48.533,87.132l5.188,5.188,2.21-2.207L53.722,87.9l9.712-9.712L66.8,81.557l.872-.87L69.5,78.856,68.342,77.7Z" transform="translate(-1.024)" fill="#d1c5bd" style="mix-blend-mode: multiply;isolation: isolate"/>
  </g>
</svg>
